<mxfile host="app.diagrams.net" modified="2023-11-24T13:11:20.881Z" agent="Mozilla/5.0 (Windows NT 10.0; Win64; x64) AppleWebKit/537.36 (KHTML, like Gecko) Chrome/117.0.0.0 Safari/537.36" etag="8PiQOeZspzy-TWnxBcJq" version="22.1.3" type="github">
  <diagram id="1b6ddaa2-a5fa-0841-a249-ffc654eaa1b7" name="Page-1">
    <mxGraphModel dx="4097" dy="3919.5" grid="1" gridSize="10" guides="1" tooltips="1" connect="1" arrows="1" fold="1" page="1" pageScale="1.5" pageWidth="826" pageHeight="1169" background="#ffffff" math="0" shadow="0">
      <root>
        <mxCell id="0" style=";html=1;" />
        <mxCell id="1" style=";html=1;" parent="0" />
        <mxCell id="5d17adbdfd248a57-142" value="" style="line;strokeWidth=2;direction=south;html=1;rounded=0;shadow=0;dashed=0;fillColor=none;fontFamily=Lucida Console;fontSize=14;align=left;strokeColor=#CCCCCC;" parent="1" vertex="1">
          <mxGeometry x="181" y="470" width="10" height="250" as="geometry" />
        </mxCell>
        <mxCell id="5d17adbdfd248a57-15" value="" style="html=1;shadow=0;dashed=0;align=center;verticalAlign=middle;shape=mxgraph.arrows2.arrow;dy=0;dx=60;notch=60;rounded=1;strokeWidth=1;fillColor=#0D5B9D;fontSize=30;rotation=90;strokeColor=none;movable=1;resizable=1;rotatable=1;deletable=1;editable=1;locked=0;connectable=1;" parent="1" vertex="1">
          <mxGeometry x="1760" y="439" width="280" height="280" as="geometry" />
        </mxCell>
        <mxCell id="5d17adbdfd248a57-20" value="TITLE GOES HERE" style="text;html=1;strokeColor=none;fillColor=none;align=center;verticalAlign=middle;whiteSpace=wrap;rounded=0;shadow=0;dashed=0;fontSize=45;fontFamily=Tahoma;fontColor=#0D5B9D;fontStyle=1;strokeWidth=9;" parent="1" vertex="1">
          <mxGeometry x="2250" y="-1210" width="1400" height="60" as="geometry" />
        </mxCell>
        <mxCell id="5d17adbdfd248a57-148" value="" style="whiteSpace=wrap;html=1;rounded=0;shadow=0;dashed=0;strokeColor=none;strokeWidth=1;fillColor=#FFFFFF;fontFamily=Lucida Console;fontSize=14;align=left;" parent="1" vertex="1">
          <mxGeometry x="185" y="200" width="1400" height="10" as="geometry" />
        </mxCell>
        <mxCell id="5d17adbdfd248a57-149" value="" style="whiteSpace=wrap;html=1;rounded=0;shadow=0;dashed=0;strokeColor=none;strokeWidth=1;fillColor=#FFFFFF;fontFamily=Lucida Console;fontSize=14;align=left;" parent="1" vertex="1">
          <mxGeometry x="185" y="980" width="1400" height="10" as="geometry" />
        </mxCell>
        <mxCell id="5d17adbdfd248a57-156" value="&lt;h1&gt;Heading&lt;/h1&gt;&lt;p&gt;Lorem ipsum dolor sit amet, consectetur adipisicing elit, sed do eiusmod tempor incididunt ut labore et dolore magna aliqua.&lt;/p&gt;" style="text;html=1;strokeColor=none;fillColor=none;spacing=5;spacingTop=-20;whiteSpace=wrap;overflow=hidden;rounded=0;shadow=0;dashed=0;fontFamily=Verdana;fontSize=12;fontColor=#FFFFFF;align=center;" parent="1" vertex="1">
          <mxGeometry x="223" y="800" width="205" height="145" as="geometry" />
        </mxCell>
        <mxCell id="p65A_TA5HtvjUqE9cYRo-1" value="" style="rounded=0;whiteSpace=wrap;html=1;movable=1;resizable=1;rotatable=1;deletable=1;editable=1;locked=0;connectable=1;verticalAlign=top;align=left;fontSize=14;spacingLeft=5;spacingTop=5;spacingRight=5;" parent="1" vertex="1">
          <mxGeometry x="2080" y="160" width="2000" height="220" as="geometry" />
        </mxCell>
        <mxCell id="p65A_TA5HtvjUqE9cYRo-2" value="" style="rounded=0;whiteSpace=wrap;html=1;movable=1;resizable=1;rotatable=1;deletable=1;editable=1;locked=0;connectable=1;verticalAlign=top;align=left;fontSize=14;spacingLeft=5;spacingTop=5;" parent="1" vertex="1">
          <mxGeometry x="2080" y="439" width="2000" height="220" as="geometry" />
        </mxCell>
        <mxCell id="p65A_TA5HtvjUqE9cYRo-3" value="" style="html=1;shadow=0;dashed=0;align=center;verticalAlign=middle;shape=mxgraph.arrows2.arrow;dy=0;dx=60;notch=60;rounded=1;strokeWidth=1;fillColor=#0D5B9D;fontSize=30;rotation=90;strokeColor=none;movable=1;resizable=1;rotatable=1;deletable=1;editable=1;locked=0;connectable=1;" parent="1" vertex="1">
          <mxGeometry x="1760" y="720" width="280" height="280" as="geometry" />
        </mxCell>
        <mxCell id="p65A_TA5HtvjUqE9cYRo-4" value="" style="rounded=0;whiteSpace=wrap;html=1;movable=1;resizable=1;rotatable=1;deletable=1;editable=1;locked=0;connectable=1;verticalAlign=top;align=left;fontSize=14;spacingLeft=5;spacingTop=5;" parent="1" vertex="1">
          <mxGeometry x="2080" y="720" width="2000" height="220" as="geometry" />
        </mxCell>
        <mxCell id="p65A_TA5HtvjUqE9cYRo-5" value="" style="html=1;shadow=0;dashed=0;align=center;verticalAlign=middle;shape=mxgraph.arrows2.arrow;dy=0;dx=60;notch=60;rounded=1;strokeWidth=1;fillColor=#0D5B9D;fontSize=30;rotation=90;strokeColor=none;movable=1;resizable=1;rotatable=1;deletable=1;editable=1;locked=0;connectable=1;" parent="1" vertex="1">
          <mxGeometry x="1760" y="1000" width="280" height="280" as="geometry" />
        </mxCell>
        <mxCell id="p65A_TA5HtvjUqE9cYRo-6" value="" style="rounded=0;whiteSpace=wrap;html=1;movable=1;resizable=1;rotatable=1;deletable=1;editable=1;locked=0;connectable=1;verticalAlign=top;align=left;fontSize=14;spacingLeft=5;spacingTop=5;" parent="1" vertex="1">
          <mxGeometry x="2080" y="1000" width="2000" height="220" as="geometry" />
        </mxCell>
        <mxCell id="p65A_TA5HtvjUqE9cYRo-7" value="" style="html=1;shadow=0;dashed=0;align=center;verticalAlign=middle;shape=mxgraph.arrows2.arrow;dy=0;dx=60;notch=60;rounded=1;strokeWidth=1;fillColor=#0D5B9D;fontSize=30;rotation=90;strokeColor=none;movable=1;resizable=1;rotatable=1;deletable=1;editable=1;locked=0;connectable=1;" parent="1" vertex="1">
          <mxGeometry x="1760" y="1281" width="280" height="280" as="geometry" />
        </mxCell>
        <mxCell id="p65A_TA5HtvjUqE9cYRo-8" value="" style="rounded=0;whiteSpace=wrap;html=1;movable=1;resizable=1;rotatable=1;deletable=1;editable=1;locked=0;connectable=1;verticalAlign=top;align=left;fontSize=14;spacingLeft=5;spacingTop=5;" parent="1" vertex="1">
          <mxGeometry x="2080" y="1281" width="2000" height="220" as="geometry" />
        </mxCell>
        <mxCell id="p65A_TA5HtvjUqE9cYRo-9" value="" style="html=1;shadow=0;dashed=0;align=center;verticalAlign=middle;shape=mxgraph.arrows2.arrow;dy=0;dx=60;notch=60;rounded=1;strokeWidth=1;fillColor=#0D5B9D;fontSize=30;rotation=90;strokeColor=none;movable=1;resizable=1;rotatable=1;deletable=1;editable=1;locked=0;connectable=1;" parent="1" vertex="1">
          <mxGeometry x="1760" y="1561" width="280" height="280" as="geometry" />
        </mxCell>
        <mxCell id="p65A_TA5HtvjUqE9cYRo-10" value="" style="rounded=0;whiteSpace=wrap;html=1;movable=1;resizable=1;rotatable=1;deletable=1;editable=1;locked=0;connectable=1;verticalAlign=top;align=left;fontSize=14;spacingLeft=5;spacingTop=5;" parent="1" vertex="1">
          <mxGeometry x="2080" y="1561" width="2000" height="220" as="geometry" />
        </mxCell>
        <mxCell id="p65A_TA5HtvjUqE9cYRo-11" value="" style="html=1;shadow=0;dashed=0;align=center;verticalAlign=middle;shape=mxgraph.arrows2.arrow;dy=0;dx=60;notch=60;rounded=1;strokeWidth=1;fillColor=#0D5B9D;fontSize=30;rotation=90;strokeColor=none;movable=1;resizable=1;rotatable=1;deletable=1;editable=1;locked=0;connectable=1;" parent="1" vertex="1">
          <mxGeometry x="1760" y="1842" width="280" height="280" as="geometry" />
        </mxCell>
        <mxCell id="p65A_TA5HtvjUqE9cYRo-12" value="" style="rounded=0;whiteSpace=wrap;html=1;movable=1;resizable=1;rotatable=1;deletable=1;editable=1;locked=0;connectable=1;verticalAlign=top;align=left;fontSize=14;spacingLeft=5;spacingTop=5;" parent="1" vertex="1">
          <mxGeometry x="2080" y="1842" width="2000" height="220" as="geometry" />
        </mxCell>
        <mxCell id="p65A_TA5HtvjUqE9cYRo-13" value="" style="html=1;shadow=0;dashed=0;align=center;verticalAlign=middle;shape=mxgraph.arrows2.arrow;dy=0;dx=60;notch=60;rounded=1;strokeWidth=1;fillColor=#0D5B9D;fontSize=30;rotation=90;strokeColor=none;movable=1;resizable=1;rotatable=1;deletable=1;editable=1;locked=0;connectable=1;" parent="1" vertex="1">
          <mxGeometry x="1760" y="2122" width="280" height="280" as="geometry" />
        </mxCell>
        <mxCell id="p65A_TA5HtvjUqE9cYRo-14" value="" style="rounded=0;whiteSpace=wrap;html=1;movable=1;resizable=1;rotatable=1;deletable=1;editable=1;locked=0;connectable=1;verticalAlign=top;align=left;fontSize=14;spacingLeft=5;spacingTop=5;" parent="1" vertex="1">
          <mxGeometry x="2080" y="2122" width="2000" height="220" as="geometry" />
        </mxCell>
        <mxCell id="p65A_TA5HtvjUqE9cYRo-15" value="" style="html=1;shadow=0;dashed=0;align=center;verticalAlign=middle;shape=mxgraph.arrows2.arrow;dy=0;dx=60;notch=60;rounded=1;strokeWidth=1;fillColor=#0D5B9D;fontSize=30;rotation=90;strokeColor=none;movable=1;resizable=1;rotatable=1;deletable=1;editable=1;locked=0;connectable=1;" parent="1" vertex="1">
          <mxGeometry x="1760" y="2403" width="280" height="280" as="geometry" />
        </mxCell>
        <mxCell id="p65A_TA5HtvjUqE9cYRo-16" value="" style="rounded=0;whiteSpace=wrap;html=1;movable=1;resizable=1;rotatable=1;deletable=1;editable=1;locked=0;connectable=1;verticalAlign=top;align=left;fontSize=14;spacingLeft=5;spacingTop=5;" parent="1" vertex="1">
          <mxGeometry x="2080" y="2403" width="2000" height="220" as="geometry" />
        </mxCell>
        <mxCell id="p65A_TA5HtvjUqE9cYRo-18" value="" style="html=1;shadow=0;dashed=0;align=center;verticalAlign=middle;shape=mxgraph.arrows2.arrow;dy=0.07;dx=5.67;notch=60;rounded=1;strokeWidth=1;fillColor=#0D5B9D;fontSize=30;rotation=90;strokeColor=none;movable=1;resizable=1;rotatable=1;deletable=1;editable=1;locked=0;connectable=1;" parent="1" vertex="1">
          <mxGeometry x="1785.625" y="3520" width="228.75" height="303.5" as="geometry" />
        </mxCell>
        <mxCell id="p65A_TA5HtvjUqE9cYRo-19" value="" style="rounded=0;whiteSpace=wrap;html=1;movable=1;resizable=1;rotatable=1;deletable=1;editable=1;locked=0;connectable=1;verticalAlign=top;align=left;fontSize=14;spacingLeft=5;spacingTop=5;" parent="1" vertex="1">
          <mxGeometry x="2080" y="3557.37" width="2000" height="220" as="geometry" />
        </mxCell>
        <mxCell id="p65A_TA5HtvjUqE9cYRo-22" value="STEP 2" style="text;html=1;strokeColor=none;fillColor=none;align=center;verticalAlign=middle;whiteSpace=wrap;rounded=0;shadow=0;dashed=0;fontSize=40;fontFamily=Helvetica;fontColor=#FFFFFF;fontStyle=1;movable=1;resizable=1;rotatable=1;deletable=1;editable=1;locked=0;connectable=1;" parent="1" vertex="1">
          <mxGeometry x="1760" y="530" width="280" height="60" as="geometry" />
        </mxCell>
        <mxCell id="p65A_TA5HtvjUqE9cYRo-23" value="STEP 3" style="text;html=1;strokeColor=none;fillColor=none;align=center;verticalAlign=middle;whiteSpace=wrap;rounded=0;shadow=0;dashed=0;fontSize=40;fontFamily=Helvetica;fontColor=#FFFFFF;fontStyle=1;movable=1;resizable=1;rotatable=1;deletable=1;editable=1;locked=0;connectable=1;" parent="1" vertex="1">
          <mxGeometry x="1760" y="810" width="280" height="60" as="geometry" />
        </mxCell>
        <mxCell id="p65A_TA5HtvjUqE9cYRo-24" value="STEP 4" style="text;html=1;strokeColor=none;fillColor=none;align=center;verticalAlign=middle;whiteSpace=wrap;rounded=0;shadow=0;dashed=0;fontSize=40;fontFamily=Helvetica;fontColor=#FFFFFF;fontStyle=1;movable=1;resizable=1;rotatable=1;deletable=1;editable=1;locked=0;connectable=1;" parent="1" vertex="1">
          <mxGeometry x="1760" y="1080" width="280" height="60" as="geometry" />
        </mxCell>
        <mxCell id="p65A_TA5HtvjUqE9cYRo-25" value="STEP 5" style="text;html=1;strokeColor=none;fillColor=none;align=center;verticalAlign=middle;whiteSpace=wrap;rounded=0;shadow=0;dashed=0;fontSize=40;fontFamily=Helvetica;fontColor=#FFFFFF;fontStyle=1;movable=1;resizable=1;rotatable=1;deletable=1;editable=1;locked=0;connectable=1;" parent="1" vertex="1">
          <mxGeometry x="1760" y="1361" width="280" height="60" as="geometry" />
        </mxCell>
        <mxCell id="p65A_TA5HtvjUqE9cYRo-26" value="STEP 6" style="text;html=1;strokeColor=none;fillColor=none;align=center;verticalAlign=middle;whiteSpace=wrap;rounded=0;shadow=0;dashed=0;fontSize=40;fontFamily=Helvetica;fontColor=#FFFFFF;fontStyle=1;movable=1;resizable=1;rotatable=1;deletable=1;editable=1;locked=0;connectable=1;" parent="1" vertex="1">
          <mxGeometry x="1760" y="1641" width="280" height="60" as="geometry" />
        </mxCell>
        <mxCell id="p65A_TA5HtvjUqE9cYRo-27" value="STEP 7" style="text;html=1;strokeColor=none;fillColor=none;align=center;verticalAlign=middle;whiteSpace=wrap;rounded=0;shadow=0;dashed=0;fontSize=40;fontFamily=Helvetica;fontColor=#FFFFFF;fontStyle=1;movable=1;resizable=1;rotatable=1;deletable=1;editable=1;locked=0;connectable=1;" parent="1" vertex="1">
          <mxGeometry x="1760" y="1922" width="280" height="60" as="geometry" />
        </mxCell>
        <mxCell id="p65A_TA5HtvjUqE9cYRo-28" value="STEP 8" style="text;html=1;strokeColor=none;fillColor=none;align=center;verticalAlign=middle;whiteSpace=wrap;rounded=0;shadow=0;dashed=0;fontSize=40;fontFamily=Helvetica;fontColor=#FFFFFF;fontStyle=1;movable=1;resizable=1;rotatable=1;deletable=1;editable=1;locked=0;connectable=1;" parent="1" vertex="1">
          <mxGeometry x="1760" y="2202" width="280" height="60" as="geometry" />
        </mxCell>
        <mxCell id="p65A_TA5HtvjUqE9cYRo-29" value="STEP 9" style="text;html=1;strokeColor=none;fillColor=none;align=center;verticalAlign=middle;whiteSpace=wrap;rounded=0;shadow=0;dashed=0;fontSize=40;fontFamily=Helvetica;fontColor=#FFFFFF;fontStyle=1;movable=1;resizable=1;rotatable=1;deletable=1;editable=1;locked=0;connectable=1;" parent="1" vertex="1">
          <mxGeometry x="1760" y="2483" width="280" height="60" as="geometry" />
        </mxCell>
        <mxCell id="p65A_TA5HtvjUqE9cYRo-30" value="STEP 10" style="text;html=1;strokeColor=none;fillColor=none;align=center;verticalAlign=middle;whiteSpace=wrap;rounded=0;shadow=0;dashed=0;fontSize=40;fontFamily=Helvetica;fontColor=#FFFFFF;fontStyle=1;movable=1;resizable=1;rotatable=1;deletable=1;editable=1;locked=0;connectable=1;" parent="1" vertex="1">
          <mxGeometry x="1760" y="3637.37" width="280" height="60" as="geometry" />
        </mxCell>
        <mxCell id="p65A_TA5HtvjUqE9cYRo-33" value="&lt;p class=&quot;MsoNormal&quot; style=&quot;font-size: 40px;&quot;&gt;Input&lt;/p&gt;" style="rounded=0;whiteSpace=wrap;html=1;fontStyle=1;fontSize=40;fillColor=#fff2cc;strokeColor=#d6b656;movable=1;resizable=1;rotatable=1;deletable=1;editable=1;locked=0;connectable=1;" parent="1" vertex="1">
          <mxGeometry x="2060" y="-940" width="402" height="120" as="geometry" />
        </mxCell>
        <mxCell id="p65A_TA5HtvjUqE9cYRo-34" value="Output" style="rounded=0;whiteSpace=wrap;html=1;fontStyle=1;fontSize=40;fillColor=#ffe6cc;strokeColor=#d79b00;movable=1;resizable=1;rotatable=1;deletable=1;editable=1;locked=0;connectable=1;" parent="1" vertex="1">
          <mxGeometry x="2519" y="-940" width="402" height="120" as="geometry" />
        </mxCell>
        <mxCell id="p65A_TA5HtvjUqE9cYRo-35" value="Tool" style="rounded=0;whiteSpace=wrap;html=1;fontStyle=1;fontSize=40;fillColor=#f8cecc;strokeColor=#b85450;movable=1;resizable=1;rotatable=1;deletable=1;editable=1;locked=0;connectable=1;" parent="1" vertex="1">
          <mxGeometry x="2979" y="-940" width="402" height="120" as="geometry" />
        </mxCell>
        <mxCell id="p65A_TA5HtvjUqE9cYRo-36" value="Explanation" style="rounded=0;whiteSpace=wrap;html=1;fontStyle=1;fontSize=40;fillColor=#d5e8d4;strokeColor=#82b366;movable=1;resizable=1;rotatable=1;deletable=1;editable=1;locked=0;connectable=1;" parent="1" vertex="1">
          <mxGeometry x="3438" y="-940" width="402" height="120" as="geometry" />
        </mxCell>
        <mxCell id="cOcfP2GvxwVNDIPguZ_v-1" value="&lt;p class=&quot;MsoNormal&quot;&gt;Input data:&lt;/p&gt;&lt;p class=&quot;MsoNormal&quot;&gt;&lt;/p&gt;&lt;ul&gt;&lt;li&gt;ML 1 and ML 2&lt;/li&gt;&lt;li style=&quot;border-color: var(--border-color);&quot;&gt;District Boarders (district_pop_som)&lt;/li&gt;&lt;/ul&gt;&lt;p&gt;&lt;/p&gt;" style="rounded=0;whiteSpace=wrap;html=1;align=left;fontSize=14;fillColor=#fff2cc;strokeColor=#d6b656;opacity=50;movable=1;resizable=1;rotatable=1;deletable=1;editable=1;locked=0;connectable=1;verticalAlign=top;spacingLeft=5;spacingTop=5;spacingRight=5;" parent="1" vertex="1">
          <mxGeometry x="2080" y="160" width="400" height="220" as="geometry" />
        </mxCell>
        <mxCell id="cOcfP2GvxwVNDIPguZ_v-3" value="&lt;p class=&quot;MsoNormal&quot; style=&quot;font-size: 21px;&quot;&gt;&lt;b&gt;Calculation of Population per Intersection Polygon&lt;/b&gt;&lt;span style=&quot;font-size:12.0pt;font-family:&amp;quot;Calibri&amp;quot;,sans-serif;mso-ascii-theme-font:&lt;br/&gt;minor-latin;mso-fareast-font-family:Calibri;mso-fareast-theme-font:minor-latin;&lt;br/&gt;mso-hansi-theme-font:minor-latin;mso-bidi-font-family:&amp;quot;Times New Roman&amp;quot;;&lt;br/&gt;mso-bidi-theme-font:minor-bidi;mso-ansi-language:EN-US;mso-fareast-language:&lt;br/&gt;EN-US;mso-bidi-language:AR-SA&quot; lang=&quot;EN-US&quot;&gt;&lt;/span&gt;&lt;br&gt;&lt;/p&gt;" style="rounded=0;whiteSpace=wrap;html=1;fillColor=none;strokeWidth=4;fontStyle=1;fontSize=21;fontColor=#FFFFFF;movable=1;resizable=1;rotatable=1;deletable=1;editable=1;locked=0;connectable=1;" parent="1" vertex="1">
          <mxGeometry x="1770" y="589" width="260" height="70" as="geometry" />
        </mxCell>
        <mxCell id="cOcfP2GvxwVNDIPguZ_v-4" value="&lt;p class=&quot;MsoNormal&quot;&gt;Weighting of the&lt;br/&gt;Population based on IPC-Phase&lt;/p&gt;" style="rounded=0;whiteSpace=wrap;html=1;fillColor=none;strokeWidth=4;fontStyle=1;fontSize=21;fontColor=#FFFFFF;movable=1;resizable=1;rotatable=1;deletable=1;editable=1;locked=0;connectable=1;" parent="1" vertex="1">
          <mxGeometry x="1770" y="870" width="260" height="70" as="geometry" />
        </mxCell>
        <mxCell id="cOcfP2GvxwVNDIPguZ_v-5" value="&lt;p class=&quot;MsoNormal&quot;&gt;Adding the total district population to Intersection_population_weighted Polygons&lt;/p&gt;" style="rounded=0;whiteSpace=wrap;html=1;fillColor=none;strokeWidth=4;fontStyle=1;fontSize=21;fontColor=#FFFFFF;movable=1;resizable=1;rotatable=1;deletable=1;editable=1;locked=0;connectable=1;" parent="1" vertex="1">
          <mxGeometry x="1770" y="1150" width="260" height="70" as="geometry" />
        </mxCell>
        <mxCell id="cOcfP2GvxwVNDIPguZ_v-6" value="&lt;p class=&quot;MsoNormal&quot; style=&quot;font-size: 21px;&quot;&gt;&lt;b&gt;Calculation of Population Proportion per Intersection Polygon&lt;/b&gt;&lt;br&gt;&lt;/p&gt;" style="rounded=0;whiteSpace=wrap;html=1;fillColor=none;strokeWidth=4;fontStyle=1;fontSize=21;fontColor=#FFFFFF;movable=1;resizable=1;rotatable=1;deletable=1;editable=1;locked=0;connectable=1;" parent="1" vertex="1">
          <mxGeometry x="1770" y="1431" width="260" height="70" as="geometry" />
        </mxCell>
        <mxCell id="cOcfP2GvxwVNDIPguZ_v-7" value="&lt;p class=&quot;MsoNormal&quot; style=&quot;font-size: 21px;&quot;&gt;&lt;b&gt;Calculation of SPI12 Mean per District&lt;/b&gt;&lt;span style=&quot;font-size:12.0pt;&lt;br/&gt;font-family:&amp;quot;Calibri&amp;quot;,sans-serif;mso-ascii-theme-font:minor-latin;mso-fareast-font-family:&lt;br/&gt;Calibri;mso-fareast-theme-font:minor-latin;mso-hansi-theme-font:minor-latin;&lt;br/&gt;mso-bidi-font-family:&amp;quot;Times New Roman&amp;quot;;mso-bidi-theme-font:minor-bidi;&lt;br/&gt;mso-ansi-language:EN-US;mso-fareast-language:EN-US;mso-bidi-language:AR-SA&quot; lang=&quot;EN-US&quot;&gt;&lt;/span&gt;&lt;br&gt;&lt;/p&gt;" style="rounded=0;whiteSpace=wrap;html=1;fillColor=none;strokeWidth=4;fontStyle=1;fontSize=21;fontColor=#FFFFFF;movable=1;resizable=1;rotatable=1;deletable=1;editable=1;locked=0;connectable=1;" parent="1" vertex="1">
          <mxGeometry x="1770" y="1992" width="260" height="70" as="geometry" />
        </mxCell>
        <mxCell id="cOcfP2GvxwVNDIPguZ_v-8" value="&lt;p class=&quot;MsoNormal&quot; style=&quot;font-size: 21px;&quot;&gt;Loading data into QGIS&lt;/p&gt;" style="rounded=0;whiteSpace=wrap;html=1;fillColor=none;strokeWidth=4;fontStyle=1;fontSize=21;fontColor=#FFFFFF;movable=1;resizable=1;rotatable=1;deletable=1;editable=1;locked=0;connectable=1;" parent="1" vertex="1">
          <mxGeometry x="1770" y="2272" width="260" height="70" as="geometry" />
        </mxCell>
        <mxCell id="cOcfP2GvxwVNDIPguZ_v-9" value="&lt;p class=&quot;MsoNormal&quot; style=&quot;font-size: 21px;&quot;&gt;Loading data into QGIS&lt;/p&gt;" style="rounded=0;whiteSpace=wrap;html=1;fillColor=none;strokeWidth=4;fontStyle=1;fontSize=21;fontColor=#FFFFFF;movable=1;resizable=1;rotatable=1;deletable=1;editable=1;locked=0;connectable=1;" parent="1" vertex="1">
          <mxGeometry x="1770" y="2553" width="260" height="70" as="geometry" />
        </mxCell>
        <mxCell id="cOcfP2GvxwVNDIPguZ_v-10" value="&lt;p class=&quot;MsoNormal&quot; style=&quot;font-size: 21px;&quot;&gt;Loading data into QGIS&lt;/p&gt;" style="rounded=0;whiteSpace=wrap;html=1;fillColor=none;strokeWidth=4;fontStyle=1;fontSize=21;fontColor=#FFFFFF;movable=1;resizable=1;rotatable=1;deletable=1;editable=1;locked=0;connectable=1;" parent="1" vertex="1">
          <mxGeometry x="1770" y="3707.37" width="260" height="70" as="geometry" />
        </mxCell>
        <mxCell id="cOcfP2GvxwVNDIPguZ_v-11" value="&lt;p class=&quot;MsoNormal&quot; style=&quot;font-size: 21px;&quot;&gt;&lt;b&gt;Calculate IPC Index per District&lt;/b&gt;&lt;span style=&quot;font-size:12.0pt;&lt;br/&gt;font-family:&amp;quot;Calibri&amp;quot;,sans-serif;mso-ascii-theme-font:minor-latin;mso-fareast-font-family:&lt;br/&gt;Calibri;mso-fareast-theme-font:minor-latin;mso-hansi-theme-font:minor-latin;&lt;br/&gt;mso-bidi-font-family:&amp;quot;Times New Roman&amp;quot;;mso-bidi-theme-font:minor-bidi;&lt;br/&gt;mso-ansi-language:EN-US;mso-fareast-language:EN-US;mso-bidi-language:AR-SA&quot; lang=&quot;EN-US&quot;&gt;&lt;/span&gt;&lt;br&gt;&lt;/p&gt;" style="rounded=0;whiteSpace=wrap;html=1;fillColor=none;strokeWidth=4;fontStyle=1;fontSize=21;fontColor=#FFFFFF;movable=1;resizable=1;rotatable=1;deletable=1;editable=1;locked=0;connectable=1;" parent="1" vertex="1">
          <mxGeometry x="1770" y="1711" width="260" height="70" as="geometry" />
        </mxCell>
        <mxCell id="cOcfP2GvxwVNDIPguZ_v-12" value="The results are polygons that share both the borders and the attributes of both input layers.&lt;br&gt;&lt;br&gt;Output data;&lt;br&gt;&lt;ul&gt;&lt;li&gt;Intersection Polygons&lt;/li&gt;&lt;/ul&gt;" style="rounded=0;whiteSpace=wrap;html=1;align=left;fontSize=14;fillColor=#ffe6cc;strokeColor=#d79b00;opacity=50;movable=1;resizable=1;rotatable=1;deletable=1;editable=1;locked=0;connectable=1;verticalAlign=top;spacingLeft=5;spacingTop=5;spacingRight=5;" parent="1" vertex="1">
          <mxGeometry x="2540" y="160" width="400" height="220" as="geometry" />
        </mxCell>
        <mxCell id="cOcfP2GvxwVNDIPguZ_v-13" value="QGIS Tool: Intersection" style="rounded=0;whiteSpace=wrap;html=1;align=left;fontSize=14;fillColor=#f8cecc;strokeColor=#b85450;opacity=50;movable=1;resizable=1;rotatable=1;deletable=1;editable=1;locked=0;connectable=1;verticalAlign=top;spacingLeft=5;spacingTop=5;spacingRight=5;" parent="1" vertex="1">
          <mxGeometry x="3000" y="160" width="400" height="220" as="geometry" />
        </mxCell>
        <mxCell id="cOcfP2GvxwVNDIPguZ_v-14" value="In this step, the polygons delivered in the IPC classification are intersected with the polygons of the administrative&lt;br&gt;districts.&lt;br&gt;&lt;span style=&quot;&quot;&gt;&lt;span style=&quot;&quot;&gt;&amp;nbsp;&amp;nbsp;&lt;/span&gt;&lt;/span&gt;&lt;span style=&quot;background-color: initial;&quot;&gt;&lt;br&gt;&lt;ol&gt;&lt;li&gt;&lt;span style=&quot;background-color: initial;&quot;&gt;Click on “Vector” -&amp;gt; “Geoprocessing Tools” -&amp;gt; “Intersection”&lt;/span&gt;&lt;/li&gt;&lt;li&gt;“Input Layer”: ML 1 or ML 2&lt;/li&gt;&lt;li&gt;“Overlay layer”: district_pop_sum&lt;/li&gt;&lt;/ol&gt;&lt;/span&gt;" style="rounded=0;whiteSpace=wrap;html=1;align=left;fontSize=14;fillColor=#d5e8d4;strokeColor=#82b366;opacity=50;movable=1;resizable=1;rotatable=1;deletable=1;editable=1;locked=0;connectable=1;verticalAlign=top;spacingLeft=5;spacingTop=5;spacingRight=5;" parent="1" vertex="1">
          <mxGeometry x="3460" y="160" width="620" height="220" as="geometry" />
        </mxCell>
        <mxCell id="cOcfP2GvxwVNDIPguZ_v-15" value="Input data:&lt;br&gt;&lt;ul&gt;&lt;li&gt;Intersection Polygon&lt;/li&gt;&lt;li style=&quot;border-color: var(--border-color);&quot;&gt;Population raster data (som_ppp_2020_UNadj_constrained.tif)&lt;/li&gt;&lt;/ul&gt;" style="rounded=0;whiteSpace=wrap;html=1;align=left;fontSize=14;fillColor=#fff2cc;strokeColor=#d6b656;opacity=50;movable=1;resizable=1;rotatable=1;deletable=1;editable=1;locked=0;connectable=1;verticalAlign=top;spacingLeft=5;spacingTop=5;" parent="1" vertex="1">
          <mxGeometry x="2080" y="440" width="400" height="220" as="geometry" />
        </mxCell>
        <mxCell id="cOcfP2GvxwVNDIPguZ_v-16" value="As a result, a column (column name &quot;Sum&quot; with the population of each polygon is added to the attribute table of the intersection polygons.&lt;br&gt;&lt;br&gt;Output data;&lt;br&gt;&lt;ul&gt;&lt;li style=&quot;border-color: var(--border-color);&quot;&gt;Intersection_population Polygons&lt;/li&gt;&lt;/ul&gt;&lt;p style=&quot;margin-bottom:0cm;margin-bottom:.0001pt;text-align:&lt;br/&gt;justify;line-height:115%;tab-stops:list 72.0pt&quot; class=&quot;MsoNormal&quot;&gt;&lt;span lang=&quot;EN-US&quot;&gt;&lt;/span&gt;&lt;/p&gt;" style="rounded=0;whiteSpace=wrap;html=1;align=left;fontSize=14;fillColor=#ffe6cc;strokeColor=#d79b00;opacity=50;movable=1;resizable=1;rotatable=1;deletable=1;editable=1;locked=0;connectable=1;verticalAlign=top;spacingLeft=5;spacingTop=5;" parent="1" vertex="1">
          <mxGeometry x="2540" y="440" width="400" height="220" as="geometry" />
        </mxCell>
        <mxCell id="cOcfP2GvxwVNDIPguZ_v-17" value="QGIS Tool: Zonal Statistics" style="rounded=0;whiteSpace=wrap;html=1;align=left;fontSize=14;fillColor=#f8cecc;strokeColor=#b85450;opacity=50;movable=1;resizable=1;rotatable=1;deletable=1;editable=1;locked=0;connectable=1;verticalAlign=top;spacingLeft=5;spacingTop=5;" parent="1" vertex="1">
          <mxGeometry x="3000" y="440" width="400" height="220" as="geometry" />
        </mxCell>
        <mxCell id="cOcfP2GvxwVNDIPguZ_v-18" value="&lt;p style=&quot;&quot; class=&quot;MsoNormal&quot;&gt;The population of each intersection polygon (previous step) is calculated based on the population raster data.&lt;/p&gt;&lt;p class=&quot;MsoNormal&quot;&gt;&lt;/p&gt;&lt;ol&gt;&lt;li&gt;&lt;span style=&quot;text-align: justify; background-color: initial;&quot;&gt;Click “Processing “-&amp;gt; “Toolbox” -&amp;gt; Search for “Zonal Statistics”&lt;/span&gt;&lt;br&gt;&lt;/li&gt;&lt;li&gt;“Input Layer”: Intersection Polygons&lt;span style=&quot;text-align: justify; background-color: initial;&quot;&gt;&lt;/span&gt;&lt;/li&gt;&lt;li&gt;&lt;span style=&quot;text-align: justify; background-color: initial;&quot;&gt;Raster Layer”: som_ppp_2020_UNadj_constrained.tif&lt;/span&gt;&lt;br&gt;&lt;/li&gt;&lt;li&gt;Statistics to calculate: “Sum”&lt;span style=&quot;text-align: justify; background-color: initial;&quot;&gt;&lt;/span&gt;&lt;/li&gt;&lt;/ol&gt;&lt;p&gt;&lt;/p&gt;&lt;p style=&quot;margin-bottom:0cm;margin-bottom:.0001pt;text-align:&lt;br/&gt;justify;line-height:115%;tab-stops:list 72.0pt&quot; class=&quot;MsoNormal&quot;&gt;&lt;/p&gt;&lt;p style=&quot;margin-bottom:0cm;margin-bottom:.0001pt;text-align:&lt;br/&gt;justify;line-height:115%;tab-stops:list 72.0pt&quot; class=&quot;MsoNormal&quot;&gt;&lt;/p&gt;&lt;p style=&quot;margin-bottom:0cm;margin-bottom:.0001pt;text-align:&lt;br/&gt;justify;line-height:115%;tab-stops:list 72.0pt&quot; class=&quot;MsoNormal&quot;&gt;&lt;/p&gt;&lt;p style=&quot;margin-bottom:0cm;margin-bottom:.0001pt;text-align:&lt;br/&gt;justify;line-height:115%;tab-stops:list 72.0pt&quot; class=&quot;MsoNormal&quot;&gt;&lt;/p&gt;" style="rounded=0;whiteSpace=wrap;html=1;align=left;fontSize=14;fillColor=#d5e8d4;strokeColor=#82b366;opacity=50;movable=1;resizable=1;rotatable=1;deletable=1;editable=1;locked=0;connectable=1;verticalAlign=top;spacingLeft=5;spacingTop=-7;" parent="1" vertex="1">
          <mxGeometry x="3460" y="440" width="620" height="220" as="geometry" />
        </mxCell>
        <mxCell id="cOcfP2GvxwVNDIPguZ_v-19" value="Input Data:&lt;br&gt;&lt;ul&gt;&lt;li style=&quot;border-color: var(--border-color);&quot;&gt;Intersection_population Polygons&lt;/li&gt;&lt;/ul&gt;&lt;div&gt;Code:&lt;/div&gt;&lt;div&gt;&lt;i&gt;&lt;span style=&quot;background-color: initial;&quot;&gt;CASE&lt;/span&gt;&lt;br&gt;&lt;/i&gt;&lt;/div&gt;&lt;div&gt;&lt;div&gt;&lt;i style=&quot;background-color: initial;&quot;&gt;WHEN &quot;ML1&quot; = 3 THEN &quot;_sum&quot; * 1&lt;/i&gt;&lt;br&gt;&lt;/div&gt;&lt;div&gt;&lt;i&gt;WHEN &quot;ML1&quot; = 4 THEN &quot;_sum&quot; * 3&lt;/i&gt;&lt;/div&gt;&lt;div&gt;&lt;i&gt;WHEN &quot;ML1&quot; = 5 THEN &quot;_sum&quot; * 6&lt;/i&gt;&lt;/div&gt;&lt;div&gt;&lt;i&gt;ELSE &quot;_sum&quot;&lt;/i&gt;&lt;/div&gt;&lt;div&gt;&lt;span style=&quot;background-color: initial;&quot;&gt;&lt;i&gt;END&lt;/i&gt;&lt;/span&gt;&lt;br&gt;&lt;/div&gt;&lt;/div&gt;&lt;div&gt;&lt;br&gt;&lt;/div&gt;&lt;div&gt;&lt;br&gt;&lt;/div&gt;" style="rounded=0;whiteSpace=wrap;html=1;align=left;fontSize=14;fillColor=#fff2cc;strokeColor=#d6b656;opacity=50;movable=1;resizable=1;rotatable=1;deletable=1;editable=1;locked=0;connectable=1;verticalAlign=top;spacingLeft=5;spacingTop=5;" parent="1" vertex="1">
          <mxGeometry x="2080" y="720" width="400" height="220" as="geometry" />
        </mxCell>
        <mxCell id="cOcfP2GvxwVNDIPguZ_v-20" value="The result is an updated population sum column with the now weighted population.&lt;br&gt;&lt;br style=&quot;border-color: var(--border-color);&quot;&gt;Output data;&lt;br style=&quot;border-color: var(--border-color);&quot;&gt;&lt;ul style=&quot;border-color: var(--border-color);&quot;&gt;&lt;li style=&quot;border-color: var(--border-color);&quot;&gt;Intersection_population_weighted Polygons&lt;/li&gt;&lt;/ul&gt;&lt;p class=&quot;MsoNormal&quot;&gt;&lt;/p&gt;" style="rounded=0;whiteSpace=wrap;html=1;align=left;fontSize=14;fillColor=#ffe6cc;strokeColor=#d79b00;opacity=50;movable=1;resizable=1;rotatable=1;deletable=1;editable=1;locked=0;connectable=1;verticalAlign=top;spacingLeft=5;spacingTop=5;" parent="1" vertex="1">
          <mxGeometry x="2540" y="720" width="400" height="220" as="geometry" />
        </mxCell>
        <mxCell id="cOcfP2GvxwVNDIPguZ_v-21" value="QGIS Tool:&amp;nbsp;Field Calculator" style="rounded=0;whiteSpace=wrap;html=1;align=left;fontSize=14;fillColor=#f8cecc;strokeColor=#b85450;opacity=50;movable=1;resizable=1;rotatable=1;deletable=1;editable=1;locked=0;connectable=1;verticalAlign=top;spacingLeft=5;spacingTop=5;" parent="1" vertex="1">
          <mxGeometry x="3000" y="720" width="400" height="220" as="geometry" />
        </mxCell>
        <mxCell id="cOcfP2GvxwVNDIPguZ_v-22" value="The population column of the Intersection_population Polygons is multiplied with a weighing factor based on the projected IPC-Phase (See IPC-Index for more info).&lt;span style=&quot;background-color: initial;&quot;&gt;&lt;br&gt;&lt;/span&gt;&lt;ol&gt;&lt;li&gt;&lt;span style=&quot;background-color: initial;&quot;&gt;Right-click on Intersection_population Polygons layer -&amp;gt; “Attribute Table”-&amp;gt; click on&amp;nbsp; &amp;nbsp; &amp;nbsp; to open the field calculator&lt;/span&gt;&lt;/li&gt;&lt;li&gt;Check “Create new field&quot;&lt;/li&gt;&lt;li&gt;“Output field name”: Name the new column “pop_sum_weighted”&lt;/li&gt;&lt;li&gt;“Result field type”: Decimal&lt;/li&gt;&lt;li&gt;Add the code block from Input into the &quot;Expression&quot; field&lt;/li&gt;&lt;li&gt;Click &quot;ok&quot;&lt;/li&gt;&lt;li&gt;Save the new column by clicking on&amp;nbsp; &amp;nbsp; &amp;nbsp; in the attribute table&lt;/li&gt;&lt;/ol&gt;&lt;p class=&quot;MsoNormal&quot;&gt;&lt;/p&gt;" style="rounded=0;html=1;align=left;fontSize=14;fillColor=#d5e8d4;strokeColor=#82b366;opacity=50;movable=1;resizable=1;rotatable=1;deletable=1;editable=1;locked=0;connectable=1;verticalAlign=top;spacingLeft=5;spacingTop=5;spacing=2;whiteSpace=wrap;" parent="1" vertex="1">
          <mxGeometry x="3460" y="720" width="620" height="220" as="geometry" />
        </mxCell>
        <mxCell id="cOcfP2GvxwVNDIPguZ_v-23" value="Input Data:&lt;br&gt;&lt;ul&gt;&lt;li style=&quot;border-color: var(--border-color);&quot;&gt;Intersection_population_weighted Polygons&lt;/li&gt;&lt;/ul&gt;" style="rounded=0;whiteSpace=wrap;html=1;align=left;fontSize=14;fillColor=#fff2cc;strokeColor=#d6b656;opacity=50;movable=1;resizable=1;rotatable=1;deletable=1;editable=1;locked=0;connectable=1;verticalAlign=top;spacingLeft=5;spacingTop=5;" parent="1" vertex="1">
          <mxGeometry x="2080" y="1000" width="400" height="220" as="geometry" />
        </mxCell>
        <mxCell id="cOcfP2GvxwVNDIPguZ_v-24" value="The result is an added column (“district pop”) containing the district population&lt;br&gt;of the district the respective polygon is located in.&lt;br&gt;&lt;br&gt;Output data:&lt;br&gt;&lt;ul&gt;&lt;li style=&quot;border-color: var(--border-color);&quot;&gt;Intersection_population_weighted_total_pop Polygons&lt;/li&gt;&lt;/ul&gt;" style="rounded=0;whiteSpace=wrap;html=1;align=left;fontSize=14;fillColor=#ffe6cc;strokeColor=#d79b00;opacity=50;movable=1;resizable=1;rotatable=1;deletable=1;editable=1;locked=0;connectable=1;verticalAlign=top;spacingLeft=5;spacingTop=5;" parent="1" vertex="1">
          <mxGeometry x="2540" y="1000" width="400" height="220" as="geometry" />
        </mxCell>
        <mxCell id="cOcfP2GvxwVNDIPguZ_v-25" value="QGIS Tool:Join attributes by field value&lt;br&gt;&amp;nbsp;" style="rounded=0;whiteSpace=wrap;html=1;align=left;fontSize=14;fillColor=#f8cecc;strokeColor=#b85450;opacity=50;movable=1;resizable=1;rotatable=1;deletable=1;editable=1;locked=0;connectable=1;verticalAlign=top;spacingLeft=5;spacingTop=5;" parent="1" vertex="1">
          <mxGeometry x="3000" y="1000" width="400" height="220" as="geometry" />
        </mxCell>
        <mxCell id="cOcfP2GvxwVNDIPguZ_v-26" value="The population sum of each district is added to “Intersection_population_weighted”&lt;br&gt;Layer based on the district name (column “admin2Name”).&lt;br&gt;&lt;span style=&quot;background-color: initial;&quot;&gt;&lt;br&gt;&lt;/span&gt;&lt;ol&gt;&lt;li&gt;&lt;span style=&quot;background-color: initial;&quot;&gt;Click “Processing” -&amp;gt; “Toolbox”-&amp;gt; Search for “Join attributes by field value&quot;&lt;/span&gt;&lt;/li&gt;&lt;li&gt;“Input Layer”: Select your “Intersection_population_weighted_total_pop” layer&lt;/li&gt;&lt;li&gt;“Table field”: Select “admin2Name”&lt;/li&gt;&lt;li&gt;“Input Layer 2”: Select the layer “district_pop_som”&lt;/li&gt;&lt;li&gt;“Table field 2”: Select “admin2Name”&lt;/li&gt;&lt;li&gt;“Layer 2 field to copy”: Click on the three points and select “admin2Name” and “districtpop”&lt;/li&gt;&lt;li&gt;“Join type”: Select the option “Take attributes of the first matching feature only&lt;br&gt;(one-to-one)&lt;br&gt;&lt;/li&gt;&lt;/ol&gt;&lt;p class=&quot;MsoNormal&quot;&gt;&lt;/p&gt;" style="rounded=0;whiteSpace=wrap;html=1;align=left;fontSize=14;fillColor=#d5e8d4;strokeColor=#82b366;opacity=50;movable=1;resizable=1;rotatable=1;deletable=1;editable=1;locked=0;connectable=1;verticalAlign=top;spacingLeft=5;spacingTop=5;" parent="1" vertex="1">
          <mxGeometry x="3460" y="1000" width="620" height="220" as="geometry" />
        </mxCell>
        <mxCell id="cOcfP2GvxwVNDIPguZ_v-27" value="Input Data:&lt;br style=&quot;border-color: var(--border-color);&quot;&gt;&lt;ul style=&quot;border-color: var(--border-color);&quot;&gt;&lt;li style=&quot;border-color: var(--border-color);&quot;&gt;Intersection_population_weighted_total_pop Polygons&lt;/li&gt;&lt;/ul&gt;&lt;div style=&quot;border-color: var(--border-color);&quot;&gt;Code:&lt;/div&gt;&lt;div style=&quot;border-color: var(--border-color);&quot;&gt;&lt;br&gt;&lt;/div&gt;&lt;div style=&quot;border-color: var(--border-color);&quot;&gt;&lt;i&gt;&quot;pop_sum_weighted&quot;/&quot;districtpo&quot;&lt;/i&gt;&lt;br&gt;&lt;/div&gt;&lt;div style=&quot;border-color: var(--border-color);&quot;&gt;&lt;br style=&quot;border-color: var(--border-color);&quot;&gt;&lt;/div&gt;&lt;div style=&quot;border-color: var(--border-color);&quot;&gt;&lt;br style=&quot;border-color: var(--border-color);&quot;&gt;&lt;/div&gt;" style="rounded=0;whiteSpace=wrap;html=1;align=left;fontSize=14;fillColor=#fff2cc;strokeColor=#d6b656;opacity=50;movable=1;resizable=1;rotatable=1;deletable=1;editable=1;locked=0;connectable=1;verticalAlign=top;spacingLeft=5;spacingTop=5;" parent="1" vertex="1">
          <mxGeometry x="2080" y="1281" width="400" height="220" as="geometry" />
        </mxCell>
        <mxCell id="cOcfP2GvxwVNDIPguZ_v-28" value="The result is a new column containing the&lt;br&gt;results of the division. That means the percentage of the total district population in a certain weighted IPC phase.&lt;br&gt;&lt;br&gt;Output data:&lt;br&gt;&lt;ul style=&quot;border-color: var(--border-color);&quot;&gt;&lt;li style=&quot;border-color: var(--border-color);&quot;&gt;Intersection_population_weighted_percentage Polygons&lt;/li&gt;&lt;/ul&gt;&lt;p style=&quot;margin-bottom:0cm;margin-bottom:.0001pt;text-align:&lt;br/&gt;justify;line-height:115%;tab-stops:list 72.0pt&quot; class=&quot;MsoNormal&quot;&gt;&lt;span lang=&quot;EN-US&quot;&gt;&lt;/span&gt;&lt;/p&gt;" style="rounded=0;whiteSpace=wrap;html=1;align=left;fontSize=14;fillColor=#ffe6cc;strokeColor=#d79b00;opacity=50;movable=1;resizable=1;rotatable=1;deletable=1;editable=1;locked=0;connectable=1;verticalAlign=top;spacingLeft=5;spacingTop=5;" parent="1" vertex="1">
          <mxGeometry x="2540" y="1281" width="400" height="220" as="geometry" />
        </mxCell>
        <mxCell id="cOcfP2GvxwVNDIPguZ_v-29" value="QGIS Tool:&amp;nbsp;Field Calculator" style="rounded=0;whiteSpace=wrap;html=1;align=left;fontSize=14;fillColor=#f8cecc;strokeColor=#b85450;opacity=50;movable=1;resizable=1;rotatable=1;deletable=1;editable=1;locked=0;connectable=1;verticalAlign=top;spacingLeft=5;spacingTop=5;" parent="1" vertex="1">
          <mxGeometry x="3000" y="1281" width="400" height="220" as="geometry" />
        </mxCell>
        <mxCell id="cOcfP2GvxwVNDIPguZ_v-30" value="Division of the weighted population of each polygon by the corresponding total&lt;br&gt;district population.&amp;nbsp;&lt;br&gt;&lt;ol style=&quot;border-color: var(--border-color);&quot;&gt;&lt;li style=&quot;border-color: var(--border-color);&quot;&gt;Right-click on Intersection_population Polygons layer -&amp;gt; “Attribute Table”-&amp;gt; click on&amp;nbsp; &amp;nbsp; &amp;nbsp; to open the field calculator&lt;/li&gt;&lt;li style=&quot;border-color: var(--border-color);&quot;&gt;Check “Create new field&quot;&lt;/li&gt;&lt;li style=&quot;border-color: var(--border-color);&quot;&gt;“Output field name”: Name the new column “Index_per_IPCPolygon_ML1”&lt;/li&gt;&lt;li style=&quot;border-color: var(--border-color);&quot;&gt;“Result field type”: Decimal&lt;/li&gt;&lt;li style=&quot;border-color: var(--border-color);&quot;&gt;Add the code block from Input into the &quot;Expression&quot; field&lt;/li&gt;&lt;li style=&quot;border-color: var(--border-color);&quot;&gt;Click &quot;ok&quot;&lt;/li&gt;&lt;li style=&quot;border-color: var(--border-color);&quot;&gt;Save the new column by clicking on&amp;nbsp; &amp;nbsp; &amp;nbsp; in the attribute table&lt;/li&gt;&lt;/ol&gt;" style="rounded=0;whiteSpace=wrap;html=1;align=left;fontSize=14;fillColor=#d5e8d4;strokeColor=#82b366;opacity=50;movable=1;resizable=1;rotatable=1;deletable=1;editable=1;locked=0;connectable=1;verticalAlign=top;spacingLeft=5;spacingTop=5;" parent="1" vertex="1">
          <mxGeometry x="3460" y="1281" width="620" height="220" as="geometry" />
        </mxCell>
        <mxCell id="cOcfP2GvxwVNDIPguZ_v-31" value="Input Data:&lt;br&gt;&lt;ul&gt;&lt;li style=&quot;border-color: var(--border-color);&quot;&gt;Intersection_population_weighted_percentage Polygons&lt;/li&gt;&lt;/ul&gt;&lt;div&gt;&lt;br&gt;&lt;/div&gt;" style="rounded=0;whiteSpace=wrap;html=1;align=left;fontSize=14;fillColor=#fff2cc;strokeColor=#d6b656;opacity=50;movable=1;resizable=1;rotatable=1;deletable=1;editable=1;locked=0;connectable=1;verticalAlign=top;spacingLeft=5;spacingTop=5;" parent="1" vertex="1">
          <mxGeometry x="2080" y="1561" width="400" height="220" as="geometry" />
        </mxCell>
        <mxCell id="cOcfP2GvxwVNDIPguZ_v-32" value="The result is the IPC index per district for the short and mid-term projection, respectively.&lt;br&gt;&lt;br&gt;Output data:&lt;br&gt;&lt;ul&gt;&lt;li&gt;IPC_Index_district&lt;/li&gt;&lt;/ul&gt;" style="rounded=0;whiteSpace=wrap;html=1;align=left;fontSize=14;fillColor=#ffe6cc;strokeColor=#d79b00;opacity=50;movable=1;resizable=1;rotatable=1;deletable=1;editable=1;locked=0;connectable=1;verticalAlign=top;spacingLeft=5;spacingTop=5;" parent="1" vertex="1">
          <mxGeometry x="2540" y="1561" width="400" height="220" as="geometry" />
        </mxCell>
        <mxCell id="cOcfP2GvxwVNDIPguZ_v-33" value="QGIS Tool:&amp;nbsp;Join attribute by location (summary)" style="rounded=0;whiteSpace=wrap;html=1;align=left;fontSize=14;fillColor=#f8cecc;strokeColor=#b85450;opacity=50;movable=1;resizable=1;rotatable=1;deletable=1;editable=1;locked=0;connectable=1;verticalAlign=top;spacingLeft=5;spacingTop=5;" parent="1" vertex="1">
          <mxGeometry x="3000" y="1561" width="400" height="220" as="geometry" />
        </mxCell>
        <mxCell id="cOcfP2GvxwVNDIPguZ_v-34" value="In this step, we calculate the mean IPC-Index for the districts based on the&lt;br&gt;intersection polygons from the previous step.&lt;br&gt;&lt;ol&gt;&lt;li&gt;Click “Processing” -&amp;gt; “Toolbox”-&amp;gt; Search for “&lt;span style=&quot;font-size: 10.5pt; line-height: 107%; font-family: Helvetica, sans-serif; background-image: initial; background-position: initial; background-size: initial; background-repeat: initial; background-attachment: initial; background-origin: initial; background-clip: initial;&quot;&gt;Join attribute by location (summary)&lt;/span&gt;”&lt;/li&gt;&lt;li&gt;“Input Layer”: Select your “district_pop_som” layer&lt;/li&gt;&lt;li&gt;“Input Layer 2”: Select your layer “Intersection_population_weighted_percentage&lt;br&gt;Polygons”&amp;nbsp;&lt;/li&gt;&lt;li&gt;“Geometric predicate”: Select “Intersection”&lt;/li&gt;&lt;li&gt;“Field to summarise”: Select “Index_per_IPCPolygon_ML1”&lt;/li&gt;&lt;li&gt;“Summaries to calculate“: Chose only the option “mean”&lt;p class=&quot;MsoNormal&quot;&gt;&lt;/p&gt;&amp;nbsp;&lt;br&gt;&lt;p class=&quot;MsoNormal&quot;&gt;&lt;/p&gt;&lt;p class=&quot;MsoNormal&quot;&gt;&lt;/p&gt;&lt;/li&gt;&lt;/ol&gt;&lt;br&gt;&lt;br&gt;&lt;p class=&quot;MsoNormal&quot;&gt;&lt;span lang=&quot;EN-US&quot;&gt;&lt;/span&gt;&lt;/p&gt;" style="rounded=0;whiteSpace=wrap;html=1;align=left;fontSize=14;fillColor=#d5e8d4;strokeColor=#82b366;opacity=50;movable=1;resizable=1;rotatable=1;deletable=1;editable=1;locked=0;connectable=1;verticalAlign=top;spacingLeft=5;spacingTop=5;" parent="1" vertex="1">
          <mxGeometry x="3460" y="1561" width="620" height="220" as="geometry" />
        </mxCell>
        <mxCell id="cOcfP2GvxwVNDIPguZ_v-35" value="Input data:&lt;br&gt;&lt;ul&gt;&lt;li style=&quot;border-color: var(--border-color);&quot;&gt;IPC_Index_district ML1&lt;/li&gt;&lt;li style=&quot;border-color: var(--border-color);&quot;&gt;IPC_Index_district ML 2&lt;/li&gt;&lt;/ul&gt;" style="rounded=0;whiteSpace=wrap;html=1;align=left;fontSize=14;fillColor=#fff2cc;strokeColor=#d6b656;opacity=50;movable=1;resizable=1;rotatable=1;deletable=1;editable=1;locked=0;connectable=1;verticalAlign=top;spacingLeft=5;spacingTop=5;" parent="1" vertex="1">
          <mxGeometry x="2080" y="1841" width="400" height="220" as="geometry" />
        </mxCell>
        <mxCell id="cOcfP2GvxwVNDIPguZ_v-36" value="The result is a layer of the districts with both ML1 and ML 2 IPC-Index columns.&lt;br&gt;&lt;br&gt;Output data:&lt;br&gt;&lt;ul&gt;&lt;li&gt;IPC_index_district_ML2_ML2&lt;/li&gt;&lt;/ul&gt;" style="rounded=0;whiteSpace=wrap;html=1;align=left;fontSize=14;fillColor=#ffe6cc;strokeColor=#d79b00;opacity=50;movable=1;resizable=1;rotatable=1;deletable=1;editable=1;locked=0;connectable=1;verticalAlign=top;spacingLeft=5;spacingTop=5;" parent="1" vertex="1">
          <mxGeometry x="2540" y="1841" width="400" height="220" as="geometry" />
        </mxCell>
        <mxCell id="cOcfP2GvxwVNDIPguZ_v-37" value="QGIS Tool:Join attributes by field value&lt;br style=&quot;border-color: var(--border-color);&quot;&gt;&amp;nbsp;&lt;br&gt;&lt;p class=&quot;MsoNormal&quot;&gt;&lt;span lang=&quot;EN-US&quot;&gt;&lt;/span&gt;&lt;/p&gt;" style="rounded=0;whiteSpace=wrap;html=1;align=left;fontSize=14;fillColor=#f8cecc;strokeColor=#b85450;opacity=50;movable=1;resizable=1;rotatable=1;deletable=1;editable=1;locked=0;connectable=1;verticalAlign=top;spacingLeft=5;spacingTop=5;" parent="1" vertex="1">
          <mxGeometry x="3000" y="1841" width="400" height="220" as="geometry" />
        </mxCell>
        <mxCell id="cOcfP2GvxwVNDIPguZ_v-38" value="The&lt;br/&gt;Index based on the mid-term IPC projection (ML1) is added to the file with the&lt;br/&gt;short-term projection (ML”) based IPC Index by matching district names.&amp;nbsp;" style="rounded=0;whiteSpace=wrap;html=1;align=left;fontSize=14;fillColor=#d5e8d4;strokeColor=#82b366;opacity=50;movable=1;resizable=1;rotatable=1;deletable=1;editable=1;locked=0;connectable=1;verticalAlign=top;spacingLeft=5;spacingTop=5;" parent="1" vertex="1">
          <mxGeometry x="3460" y="1841" width="620" height="220" as="geometry" />
        </mxCell>
        <mxCell id="cOcfP2GvxwVNDIPguZ_v-39" value="Input data:&lt;br style=&quot;border-color: var(--border-color);&quot;&gt;&lt;ul style=&quot;border-color: var(--border-color);&quot;&gt;&lt;li style=&quot;border-color: var(--border-color);&quot;&gt;District Boarders (district_pop_som)&lt;/li&gt;&lt;li style=&quot;border-color: var(--border-color);&quot;&gt;SPI Forecast&lt;/li&gt;&lt;/ul&gt;" style="rounded=0;whiteSpace=wrap;html=1;align=left;fontSize=14;fillColor=#fff2cc;strokeColor=#d6b656;opacity=50;movable=1;resizable=1;rotatable=1;deletable=1;editable=1;locked=0;connectable=1;verticalAlign=top;spacingLeft=5;spacingTop=5;" parent="1" vertex="1">
          <mxGeometry x="2080" y="2122" width="400" height="220" as="geometry" />
        </mxCell>
        <mxCell id="cOcfP2GvxwVNDIPguZ_v-40" value="The result will be the districts with the mena SPI-12 value in the column “SPI12_mean”.&lt;br&gt;&lt;br&gt;Output data:&lt;br&gt;&lt;ul&gt;&lt;li&gt;SPI12_districts&lt;/li&gt;&lt;/ul&gt;&lt;p class=&quot;MsoNormal&quot;&gt;&lt;span lang=&quot;EN-US&quot;&gt;&lt;/span&gt;&lt;/p&gt;" style="rounded=0;whiteSpace=wrap;html=1;align=left;fontSize=14;fillColor=#ffe6cc;strokeColor=#d79b00;opacity=50;movable=1;resizable=1;rotatable=1;deletable=1;editable=1;locked=0;connectable=1;verticalAlign=top;spacingLeft=5;spacingTop=5;" parent="1" vertex="1">
          <mxGeometry x="2540" y="2122" width="400" height="220" as="geometry" />
        </mxCell>
        <mxCell id="cOcfP2GvxwVNDIPguZ_v-41" value="QGIS Tool: Zonal Statistics" style="rounded=0;whiteSpace=wrap;html=1;align=left;fontSize=14;fillColor=#f8cecc;strokeColor=#b85450;opacity=50;movable=1;resizable=1;rotatable=1;deletable=1;editable=1;locked=0;connectable=1;verticalAlign=top;spacingLeft=5;spacingTop=5;" parent="1" vertex="1">
          <mxGeometry x="3000" y="2122" width="400" height="220" as="geometry" />
        </mxCell>
        <mxCell id="cOcfP2GvxwVNDIPguZ_v-42" value="The mean value of the SPI12 raster data is calculated for each district and stored&lt;br style=&quot;border-color: var(--border-color);&quot;&gt;in a new column (“SPI12_mean”).&lt;br style=&quot;border-color: var(--border-color);&quot;&gt;&lt;br style=&quot;border-color: var(--border-color);&quot;&gt;&lt;ol style=&quot;border-color: var(--border-color);&quot;&gt;&lt;li style=&quot;border-color: var(--border-color);&quot;&gt;&quot;Click “Processing “-&amp;gt; “Toolbox” -&amp;gt; Search for “Zonal Statistics”&lt;br style=&quot;border-color: var(--border-color);&quot;&gt;&lt;/li&gt;&lt;li style=&quot;border-color: var(--border-color);&quot;&gt;“Input Layer”:&amp;nbsp;district_pop_som&lt;/li&gt;&lt;li style=&quot;border-color: var(--border-color);&quot;&gt;&lt;span style=&quot;border-color: var(--border-color); text-align: justify; background-color: initial;&quot;&gt;Raster Layer”:&amp;nbsp;&lt;/span&gt;SPI Forecast&lt;/li&gt;&lt;li style=&quot;border-color: var(--border-color);&quot;&gt;&quot;Output column prefix&quot;: Use&amp;nbsp; &quot;SPI12_&quot;&lt;/li&gt;&lt;li style=&quot;border-color: var(--border-color);&quot;&gt;Statistics to calculate: “Mean”&lt;/li&gt;&lt;/ol&gt;" style="rounded=0;whiteSpace=wrap;html=1;align=left;fontSize=14;fillColor=#d5e8d4;strokeColor=#82b366;opacity=50;movable=1;resizable=1;rotatable=1;deletable=1;editable=1;locked=0;connectable=1;verticalAlign=top;spacingLeft=5;spacingTop=5;" parent="1" vertex="1">
          <mxGeometry x="3460" y="2122" width="620" height="220" as="geometry" />
        </mxCell>
        <mxCell id="cOcfP2GvxwVNDIPguZ_v-43" value="" style="rounded=0;whiteSpace=wrap;html=1;align=left;fontSize=14;fillColor=#fff2cc;strokeColor=#d6b656;opacity=50;movable=1;resizable=1;rotatable=1;deletable=1;editable=1;locked=0;connectable=1;verticalAlign=top;spacingLeft=5;spacingTop=5;" parent="1" vertex="1">
          <mxGeometry x="2080" y="2402" width="400" height="220" as="geometry" />
        </mxCell>
        <mxCell id="cOcfP2GvxwVNDIPguZ_v-44" value="" style="rounded=0;whiteSpace=wrap;html=1;align=left;fontSize=14;fillColor=#ffe6cc;strokeColor=#d79b00;opacity=50;movable=1;resizable=1;rotatable=1;deletable=1;editable=1;locked=0;connectable=1;verticalAlign=top;spacingLeft=5;spacingTop=5;" parent="1" vertex="1">
          <mxGeometry x="2540" y="2402" width="400" height="220" as="geometry" />
        </mxCell>
        <mxCell id="cOcfP2GvxwVNDIPguZ_v-45" value="" style="rounded=0;whiteSpace=wrap;html=1;align=left;fontSize=14;fillColor=#f8cecc;strokeColor=#b85450;opacity=50;movable=1;resizable=1;rotatable=1;deletable=1;editable=1;locked=0;connectable=1;verticalAlign=top;spacingLeft=5;spacingTop=5;" parent="1" vertex="1">
          <mxGeometry x="3000" y="2402" width="400" height="220" as="geometry" />
        </mxCell>
        <mxCell id="cOcfP2GvxwVNDIPguZ_v-46" value="" style="rounded=0;whiteSpace=wrap;html=1;align=left;fontSize=14;fillColor=#d5e8d4;strokeColor=#82b366;opacity=50;movable=1;resizable=1;rotatable=1;deletable=1;editable=1;locked=0;connectable=1;verticalAlign=top;spacingLeft=5;spacingTop=5;" parent="1" vertex="1">
          <mxGeometry x="3460" y="2402" width="620" height="220" as="geometry" />
        </mxCell>
        <mxCell id="cOcfP2GvxwVNDIPguZ_v-47" value="" style="rounded=0;whiteSpace=wrap;html=1;align=left;fontSize=14;fillColor=#fff2cc;strokeColor=#d6b656;opacity=50;movable=1;resizable=1;rotatable=1;deletable=1;editable=1;locked=0;connectable=1;verticalAlign=top;spacingLeft=5;spacingTop=5;" parent="1" vertex="1">
          <mxGeometry x="2080" y="3557.37" width="400" height="220" as="geometry" />
        </mxCell>
        <mxCell id="cOcfP2GvxwVNDIPguZ_v-48" value="" style="rounded=0;whiteSpace=wrap;html=1;align=left;fontSize=14;fillColor=#ffe6cc;strokeColor=#d79b00;opacity=50;movable=1;resizable=1;rotatable=1;deletable=1;editable=1;locked=0;connectable=1;verticalAlign=top;spacingLeft=5;spacingTop=5;" parent="1" vertex="1">
          <mxGeometry x="2540" y="3557.37" width="400" height="220" as="geometry" />
        </mxCell>
        <mxCell id="cOcfP2GvxwVNDIPguZ_v-49" value="" style="rounded=0;whiteSpace=wrap;html=1;align=left;fontSize=14;fillColor=#f8cecc;strokeColor=#b85450;opacity=50;movable=1;resizable=1;rotatable=1;deletable=1;editable=1;locked=0;connectable=1;verticalAlign=top;spacingLeft=5;spacingTop=5;" parent="1" vertex="1">
          <mxGeometry x="3000" y="3557.37" width="400" height="220" as="geometry" />
        </mxCell>
        <mxCell id="cOcfP2GvxwVNDIPguZ_v-50" value="" style="rounded=0;whiteSpace=wrap;html=1;align=left;fontSize=14;fillColor=#d5e8d4;strokeColor=#82b366;opacity=50;movable=1;resizable=1;rotatable=1;deletable=1;editable=1;locked=0;connectable=1;verticalAlign=top;spacingLeft=5;spacingTop=5;" parent="1" vertex="1">
          <mxGeometry x="3460" y="3557.37" width="620" height="220" as="geometry" />
        </mxCell>
        <mxCell id="cOcfP2GvxwVNDIPguZ_v-75" value="" style="html=1;shadow=0;dashed=0;align=center;verticalAlign=middle;shape=mxgraph.arrows2.arrow;dy=0;dx=60;notch=0;rounded=1;strokeWidth=1;fillColor=#0D5B9D;fontSize=30;rotation=90;strokeColor=none;movable=1;resizable=1;rotatable=1;deletable=1;editable=1;locked=0;connectable=1;" parent="1" vertex="1">
          <mxGeometry x="1760" y="-690" width="280" height="280" as="geometry" />
        </mxCell>
        <mxCell id="cOcfP2GvxwVNDIPguZ_v-76" value="" style="html=1;shadow=0;dashed=0;align=center;verticalAlign=middle;shape=mxgraph.arrows2.arrow;dy=0;dx=60;notch=60;rounded=1;strokeWidth=1;fillColor=#0D5B9D;fontSize=30;rotation=90;strokeColor=none;movable=1;resizable=1;rotatable=1;deletable=1;editable=1;locked=0;connectable=1;" parent="1" vertex="1">
          <mxGeometry x="1760" y="-411" width="280" height="280" as="geometry" />
        </mxCell>
        <mxCell id="cOcfP2GvxwVNDIPguZ_v-77" value="STEP 1" style="text;html=1;strokeColor=none;fillColor=none;align=center;verticalAlign=middle;whiteSpace=wrap;rounded=0;shadow=0;dashed=0;fontSize=40;fontFamily=Helvetica;fontColor=#FFFFFF;fontStyle=1;movable=1;resizable=1;rotatable=1;deletable=1;editable=1;locked=0;connectable=1;" parent="1" vertex="1">
          <mxGeometry x="1760" y="-640" width="280" height="60" as="geometry" />
        </mxCell>
        <mxCell id="cOcfP2GvxwVNDIPguZ_v-78" value="" style="rounded=0;whiteSpace=wrap;html=1;movable=1;resizable=1;rotatable=1;deletable=1;editable=1;locked=0;connectable=1;spacingLeft=5;align=left;verticalAlign=top;spacingRight=5;" parent="1" vertex="1">
          <mxGeometry x="2080" y="-690" width="2000" height="220" as="geometry" />
        </mxCell>
        <mxCell id="cOcfP2GvxwVNDIPguZ_v-79" value="" style="rounded=0;whiteSpace=wrap;html=1;movable=1;resizable=1;rotatable=1;deletable=1;editable=1;locked=0;connectable=1;verticalAlign=top;align=left;fontSize=14;spacingLeft=5;spacingTop=5;spacingRight=5;" parent="1" vertex="1">
          <mxGeometry x="2080" y="-411" width="2000" height="220" as="geometry" />
        </mxCell>
        <mxCell id="cOcfP2GvxwVNDIPguZ_v-80" value="" style="html=1;shadow=0;dashed=0;align=center;verticalAlign=middle;shape=mxgraph.arrows2.arrow;dy=0;dx=60;notch=60;rounded=1;strokeWidth=1;fillColor=#0D5B9D;fontSize=30;rotation=90;strokeColor=none;movable=1;resizable=1;rotatable=1;deletable=1;editable=1;locked=0;connectable=1;" parent="1" vertex="1">
          <mxGeometry x="1760" y="-130" width="280" height="280" as="geometry" />
        </mxCell>
        <mxCell id="cOcfP2GvxwVNDIPguZ_v-81" value="" style="rounded=0;whiteSpace=wrap;html=1;movable=1;resizable=1;rotatable=1;deletable=1;editable=1;locked=0;connectable=1;verticalAlign=top;align=left;fontSize=14;spacingLeft=5;spacingTop=5;" parent="1" vertex="1">
          <mxGeometry x="2080" y="-130" width="2000" height="220" as="geometry" />
        </mxCell>
        <mxCell id="cOcfP2GvxwVNDIPguZ_v-82" value="STEP 2" style="text;html=1;strokeColor=none;fillColor=none;align=center;verticalAlign=middle;whiteSpace=wrap;rounded=0;shadow=0;dashed=0;fontSize=40;fontFamily=Helvetica;fontColor=#FFFFFF;fontStyle=1;movable=1;resizable=1;rotatable=1;deletable=1;editable=1;locked=0;connectable=1;" parent="1" vertex="1">
          <mxGeometry x="1760" y="-320" width="280" height="60" as="geometry" />
        </mxCell>
        <mxCell id="cOcfP2GvxwVNDIPguZ_v-83" value="STEP 3" style="text;html=1;strokeColor=none;fillColor=none;align=center;verticalAlign=middle;whiteSpace=wrap;rounded=0;shadow=0;dashed=0;fontSize=40;fontFamily=Helvetica;fontColor=#FFFFFF;fontStyle=1;movable=1;resizable=1;rotatable=1;deletable=1;editable=1;locked=0;connectable=1;" parent="1" vertex="1">
          <mxGeometry x="1760" y="-40" width="280" height="60" as="geometry" />
        </mxCell>
        <mxCell id="cOcfP2GvxwVNDIPguZ_v-85" value="&lt;p class=&quot;MsoNormal&quot;&gt;Setting up folder&lt;br/&gt;structure&amp;nbsp;&lt;/p&gt;" style="rounded=0;whiteSpace=wrap;html=1;fillColor=none;strokeWidth=4;fontStyle=1;fontSize=21;fontColor=#FFFFFF;movable=1;resizable=1;rotatable=1;deletable=1;editable=1;locked=0;connectable=1;" parent="1" vertex="1">
          <mxGeometry x="1770" y="-590" width="260" height="110" as="geometry" />
        </mxCell>
        <mxCell id="cOcfP2GvxwVNDIPguZ_v-86" value="&lt;p class=&quot;MsoNormal&quot; style=&quot;font-size: 21px;&quot;&gt;Donwload of the forecast data&lt;br&gt;&lt;/p&gt;" style="rounded=0;whiteSpace=wrap;html=1;fillColor=none;strokeWidth=4;fontStyle=1;fontSize=21;fontColor=#FFFFFF;movable=1;resizable=1;rotatable=1;deletable=1;editable=1;locked=0;connectable=1;" parent="1" vertex="1">
          <mxGeometry x="1770" y="-261" width="260" height="70" as="geometry" />
        </mxCell>
        <mxCell id="cOcfP2GvxwVNDIPguZ_v-87" value="&lt;p class=&quot;MsoNormal&quot; style=&quot;font-size: 21px;&quot;&gt;Loading data into QGIS&lt;/p&gt;" style="rounded=0;whiteSpace=wrap;html=1;fillColor=none;strokeWidth=4;fontStyle=1;fontSize=21;fontColor=#FFFFFF;movable=1;resizable=1;rotatable=1;deletable=1;editable=1;locked=0;connectable=1;" parent="1" vertex="1">
          <mxGeometry x="1770" y="20" width="260" height="70" as="geometry" />
        </mxCell>
        <mxCell id="cOcfP2GvxwVNDIPguZ_v-88" value="&lt;p class=&quot;MsoNormal&quot;&gt;The results will be the folder structure for the month you want to do the monitoring. These folders&lt;br&gt;can be filled with the forecast data in the next step.&lt;/p&gt;" style="rounded=0;whiteSpace=wrap;html=1;align=left;fontSize=14;fillColor=#ffe6cc;strokeColor=#d79b00;opacity=50;movable=1;resizable=1;rotatable=1;deletable=1;editable=1;locked=0;connectable=1;verticalAlign=top;spacingLeft=5;spacingRight=5;" parent="1" vertex="1">
          <mxGeometry x="2540" y="-690" width="400" height="220" as="geometry" />
        </mxCell>
        <mxCell id="cOcfP2GvxwVNDIPguZ_v-89" value="&lt;p class=&quot;MsoNormal&quot;&gt;No special tools or programs are needed.&lt;/p&gt;" style="rounded=0;whiteSpace=wrap;html=1;align=left;fontSize=14;fillColor=#f8cecc;strokeColor=#b85450;opacity=50;movable=1;resizable=1;rotatable=1;deletable=1;editable=1;locked=0;connectable=1;spacingLeft=5;verticalAlign=top;spacingRight=5;" parent="1" vertex="1">
          <mxGeometry x="3000" y="-690" width="400" height="220" as="geometry" />
        </mxCell>
        <mxCell id="cOcfP2GvxwVNDIPguZ_v-90" value="&lt;br&gt;Setting up the folder structure:&lt;br&gt;&lt;br&gt;&lt;ol&gt;&lt;li&gt;Open the Folder&amp;nbsp;&lt;span style=&quot;text-indent: -18pt; background-color: initial;&quot;&gt;“FbF_Drought_Monitoring_Trigger&lt;/span&gt;&lt;/li&gt;&lt;li&gt;&lt;span style=&quot;text-indent: -18pt; background-color: initial;&quot;&gt;Open the subfolder &quot;Monitoring&quot;&lt;/span&gt;&lt;/li&gt;&lt;li&gt;&lt;span style=&quot;text-indent: -18pt; background-color: initial;&quot;&gt;Copy the Template&lt;br&gt;folder “TEMPLATE_Year_Month” and change the name to the current year and month.&lt;br&gt;The result could be the folder &quot;2022_05&quot;&lt;/span&gt;&amp;nbsp;&lt;/li&gt;&lt;/ol&gt;" style="rounded=0;whiteSpace=wrap;html=1;align=left;fontSize=14;fillColor=#d5e8d4;strokeColor=#82b366;opacity=50;movable=1;resizable=1;rotatable=1;deletable=1;editable=1;locked=0;connectable=1;spacingLeft=5;verticalAlign=top;spacingRight=5;" parent="1" vertex="1">
          <mxGeometry x="3460" y="-690" width="620" height="220" as="geometry" />
        </mxCell>
        <mxCell id="cOcfP2GvxwVNDIPguZ_v-91" value="" style="rounded=0;whiteSpace=wrap;html=1;align=left;fontSize=14;fillColor=#fff2cc;strokeColor=#d6b656;opacity=50;movable=1;resizable=1;rotatable=1;deletable=1;editable=1;locked=0;connectable=1;verticalAlign=top;spacingLeft=5;spacingTop=5;spacingRight=5;" parent="1" vertex="1">
          <mxGeometry x="2080" y="-409" width="400" height="220" as="geometry" />
        </mxCell>
        <mxCell id="cOcfP2GvxwVNDIPguZ_v-92" value="&lt;p class=&quot;MsoNormal&quot;&gt;&lt;br&gt;&lt;/p&gt;" style="rounded=0;whiteSpace=wrap;html=1;align=left;fontSize=14;fillColor=#ffe6cc;strokeColor=#d79b00;opacity=50;movable=1;resizable=1;rotatable=1;deletable=1;editable=1;locked=0;connectable=1;verticalAlign=top;spacingLeft=5;spacingTop=5;spacingRight=5;" parent="1" vertex="1">
          <mxGeometry x="2540" y="-410" width="400" height="220" as="geometry" />
        </mxCell>
        <mxCell id="cOcfP2GvxwVNDIPguZ_v-93" value="&lt;p class=&quot;MsoNormal&quot;&gt;&lt;br&gt;&lt;/p&gt;" style="rounded=0;whiteSpace=wrap;html=1;align=left;fontSize=14;fillColor=#f8cecc;strokeColor=#b85450;opacity=50;movable=1;resizable=1;rotatable=1;deletable=1;editable=1;locked=0;connectable=1;verticalAlign=top;spacingLeft=5;spacingTop=5;spacingRight=5;" parent="1" vertex="1">
          <mxGeometry x="3000" y="-410" width="400" height="220" as="geometry" />
        </mxCell>
        <mxCell id="cOcfP2GvxwVNDIPguZ_v-94" value="&lt;p class=&quot;MsoNormal&quot;&gt;&lt;br&gt;&lt;/p&gt;&lt;p&gt;&lt;/p&gt;&lt;p class=&quot;MsoNormal&quot;&gt;&lt;/p&gt;&lt;p class=&quot;MsoNormal&quot;&gt;&lt;/p&gt;" style="rounded=0;whiteSpace=wrap;html=1;align=left;fontSize=14;fillColor=#d5e8d4;strokeColor=#82b366;opacity=50;movable=1;resizable=1;rotatable=1;deletable=1;editable=1;locked=0;connectable=1;verticalAlign=top;spacingLeft=5;spacingTop=5;spacingRight=5;" parent="1" vertex="1">
          <mxGeometry x="3460" y="-410" width="620" height="220" as="geometry" />
        </mxCell>
        <mxCell id="cOcfP2GvxwVNDIPguZ_v-95" value="Data input in QGIS Project&#x9;&lt;br style=&quot;border-color: var(--border-color);&quot;&gt;&lt;br style=&quot;border-color: var(--border-color);&quot;&gt;Fixed Data:&lt;br style=&quot;border-color: var(--border-color);&quot;&gt;&lt;ul style=&quot;border-color: var(--border-color);&quot;&gt;&lt;li style=&quot;border-color: var(--border-color);&quot;&gt;District Boarders (district_pop_som.gpkg)&lt;/li&gt;&lt;li style=&quot;border-color: var(--border-color);&quot;&gt;Population raster data (som_ppp_2020_UNadj_constrained.tif)&lt;br style=&quot;border-color: var(--border-color);&quot;&gt;&lt;/li&gt;&lt;/ul&gt;&lt;div style=&quot;border-color: var(--border-color);&quot;&gt;Forecast data:&lt;/div&gt;&lt;div style=&quot;border-color: var(--border-color);&quot;&gt;&lt;ul style=&quot;border-color: var(--border-color);&quot;&gt;&lt;li style=&quot;border-color: var(--border-color);&quot;&gt;ML 1&lt;/li&gt;&lt;li style=&quot;border-color: var(--border-color);&quot;&gt;ML 2&lt;/li&gt;&lt;li style=&quot;border-color: var(--border-color);&quot;&gt;SPI Forecast&lt;/li&gt;&lt;/ul&gt;&lt;/div&gt;" style="rounded=0;whiteSpace=wrap;html=1;align=left;fontSize=14;fillColor=#fff2cc;strokeColor=#d6b656;opacity=50;movable=1;resizable=1;rotatable=1;deletable=1;editable=1;locked=0;connectable=1;verticalAlign=top;spacingLeft=5;spacingTop=5;" parent="1" vertex="1">
          <mxGeometry x="2080" y="-130" width="400" height="220" as="geometry" />
        </mxCell>
        <mxCell id="cOcfP2GvxwVNDIPguZ_v-96" value="The result will be a QGIS Project in the correct folder with all the data you need in the next steps&lt;br&gt;&lt;br&gt;&lt;p class=&quot;MsoNormal&quot;&gt;Now all the data we need is in QGIS !&lt;/p&gt;" style="rounded=0;whiteSpace=wrap;html=1;align=left;fontSize=14;fillColor=#ffe6cc;strokeColor=#d79b00;opacity=50;movable=1;resizable=1;rotatable=1;deletable=1;editable=1;locked=0;connectable=1;verticalAlign=top;spacingLeft=5;spacingTop=5;" parent="1" vertex="1">
          <mxGeometry x="2540" y="-130" width="400" height="220" as="geometry" />
        </mxCell>
        <mxCell id="cOcfP2GvxwVNDIPguZ_v-97" value="You will need QGIS" style="rounded=0;whiteSpace=wrap;html=1;align=left;fontSize=14;fillColor=#f8cecc;strokeColor=#b85450;opacity=50;movable=1;resizable=1;rotatable=1;deletable=1;editable=1;locked=0;connectable=1;verticalAlign=top;spacingLeft=5;spacingTop=5;" parent="1" vertex="1">
          <mxGeometry x="3000" y="-130" width="400" height="220" as="geometry" />
        </mxCell>
        <mxCell id="cOcfP2GvxwVNDIPguZ_v-98" value="&lt;p style=&quot;border-color: var(--border-color);&quot; class=&quot;MsoNormal&quot;&gt;Create a new QGIS Project and load the data:&lt;/p&gt;&lt;p style=&quot;border-color: var(--border-color);&quot; class=&quot;MsoNormal&quot;&gt;&lt;/p&gt;&lt;ol style=&quot;border-color: var(--border-color);&quot;&gt;&lt;li style=&quot;border-color: var(--border-color);&quot;&gt;Open QGIS and create a&lt;br style=&quot;border-color: var(--border-color);&quot;&gt;new project by clicking on “Project” -&amp;gt; “New”&lt;br style=&quot;border-color: var(--border-color);&quot;&gt;&lt;/li&gt;&lt;li style=&quot;border-color: var(--border-color);&quot;&gt;Once the project is created save the project in the folder you created in Step 1 (e.g. 2022_05).&amp;nbsp;To do that click on ”Project” -&amp;gt; “Save as” and navigate to the folder. Give the project the same name as the folder you created (e.g. 2022_05). Then click “Save”&lt;/li&gt;&lt;li style=&quot;border-color: var(--border-color);&quot;&gt;Load all input data in&lt;br style=&quot;border-color: var(--border-color);&quot;&gt;QGIS by drag and drop. Click on “Project” -&amp;gt; “Save”&amp;nbsp;&lt;/li&gt;&lt;/ol&gt;" style="rounded=0;whiteSpace=wrap;html=1;align=left;fontSize=14;fillColor=#d5e8d4;strokeColor=#82b366;opacity=50;movable=1;resizable=1;rotatable=1;deletable=1;editable=1;locked=0;connectable=1;verticalAlign=top;spacingLeft=5;spacingTop=-5;" parent="1" vertex="1">
          <mxGeometry x="3460" y="-130" width="620" height="220" as="geometry" />
        </mxCell>
        <mxCell id="cOcfP2GvxwVNDIPguZ_v-99" value="" style="html=1;shadow=0;dashed=0;align=center;verticalAlign=middle;shape=mxgraph.arrows2.arrow;dy=0;dx=60;notch=60;rounded=1;strokeWidth=1;fillColor=#0D5B9D;fontSize=30;rotation=90;strokeColor=none;movable=1;resizable=1;rotatable=1;deletable=1;editable=1;locked=0;connectable=1;" parent="1" vertex="1">
          <mxGeometry x="1760" y="150" width="280" height="280" as="geometry" />
        </mxCell>
        <mxCell id="cOcfP2GvxwVNDIPguZ_v-100" value="STEP 4" style="text;html=1;strokeColor=none;fillColor=none;align=center;verticalAlign=middle;whiteSpace=wrap;rounded=0;shadow=0;dashed=0;fontSize=40;fontFamily=Helvetica;fontColor=#FFFFFF;fontStyle=1;movable=1;resizable=1;rotatable=1;deletable=1;editable=1;locked=0;connectable=1;" parent="1" vertex="1">
          <mxGeometry x="1760" y="241" width="280" height="60" as="geometry" />
        </mxCell>
        <mxCell id="cOcfP2GvxwVNDIPguZ_v-101" value="&lt;p class=&quot;MsoNormal&quot;&gt;Intersection of ML 1&lt;br/&gt;&amp;amp; ML 2 data with the district polygons&amp;nbsp;&lt;/p&gt;" style="rounded=0;whiteSpace=wrap;html=1;fillColor=none;strokeWidth=4;fontStyle=1;fontSize=21;fontColor=#FFFFFF;movable=1;resizable=1;rotatable=1;deletable=1;editable=1;locked=0;connectable=1;" parent="1" vertex="1">
          <mxGeometry x="1770" y="300" width="260" height="70" as="geometry" />
        </mxCell>
        <mxCell id="cOcfP2GvxwVNDIPguZ_v-102" value="&lt;p class=&quot;MsoNormal&quot;&gt;You need the original “FbF_Drought_Monitoring_Trigger”&lt;br&gt;Folder structure&lt;/p&gt;" style="rounded=0;whiteSpace=wrap;html=1;align=left;fontSize=14;fillColor=#fff2cc;strokeColor=#d6b656;opacity=50;movable=1;resizable=1;rotatable=1;deletable=1;editable=1;locked=0;connectable=1;verticalAlign=top;spacingLeft=5;spacingTop=5;spacingRight=5;" parent="1" vertex="1">
          <mxGeometry x="2078" y="-690" width="400" height="220" as="geometry" />
        </mxCell>
        <mxCell id="cOcfP2GvxwVNDIPguZ_v-119" value="" style="group;spacingTop=-14;" parent="1" vertex="1" connectable="0">
          <mxGeometry x="2170" y="906.5" width="360" height="93.5" as="geometry" />
        </mxCell>
        <mxCell id="cOcfP2GvxwVNDIPguZ_v-120" value="&lt;br&gt;&lt;span style=&quot;border-color: var(--border-color); color: rgb(0, 0, 0); font-family: Helvetica; font-size: 14px; font-style: normal; font-variant-ligatures: normal; font-variant-caps: normal; font-weight: 400; letter-spacing: normal; orphans: 2; text-indent: 0px; text-transform: none; widows: 2; word-spacing: 0px; -webkit-text-stroke-width: 0px; text-decoration-thickness: initial; text-decoration-style: initial; text-decoration-color: initial;&quot;&gt;&lt;span style=&quot;border-color: var(--border-color);&quot;&gt;&amp;nbsp;&amp;nbsp;&lt;/span&gt;&lt;/span&gt;&lt;span style=&quot;border-color: var(--border-color); color: rgb(0, 0, 0); font-family: Helvetica; font-size: 14px; font-style: normal; font-variant-ligatures: normal; font-variant-caps: normal; font-weight: 400; letter-spacing: normal; orphans: 2; text-indent: 0px; text-transform: none; widows: 2; word-spacing: 0px; -webkit-text-stroke-width: 0px; text-decoration-thickness: initial; text-decoration-style: initial; text-decoration-color: initial;&quot;&gt;&lt;span style=&quot;border-color: var(--border-color);&quot;&gt;&amp;nbsp; &amp;nbsp;&lt;span style=&quot;&quot;&gt;&lt;span style=&quot;white-space: pre;&quot;&gt;&amp;nbsp;&amp;nbsp;&amp;nbsp;&amp;nbsp;&lt;/span&gt;&lt;/span&gt;&lt;span style=&quot;background-color: initial;&quot;&gt;You have to adjust the code for ML 2 !!&lt;/span&gt;&lt;span style=&quot;&quot;&gt;&lt;span style=&quot;white-space: pre;&quot;&gt;&lt;br&gt;&lt;/span&gt;&lt;/span&gt;&lt;/span&gt;&lt;/span&gt;&lt;span style=&quot;border-color: var(--border-color); color: rgb(0, 0, 0); font-family: Helvetica; font-size: 14px; font-style: normal; font-variant-ligatures: normal; font-variant-caps: normal; font-weight: 400; letter-spacing: normal; orphans: 2; text-indent: 0px; text-transform: none; widows: 2; word-spacing: 0px; -webkit-text-stroke-width: 0px; background-color: initial; text-decoration-thickness: initial; text-decoration-style: initial; text-decoration-color: initial;&quot;&gt;&lt;br&gt;&lt;/span&gt;" style="rounded=0;whiteSpace=wrap;html=1;align=center;verticalAlign=top;spacing=0;fillColor=#ffff88;strokeColor=#36393d;spacingTop=-11;" parent="cOcfP2GvxwVNDIPguZ_v-119" vertex="1">
          <mxGeometry y="10" width="360" height="40" as="geometry" />
        </mxCell>
        <mxCell id="cOcfP2GvxwVNDIPguZ_v-121" value="" style="shape=image;html=1;verticalAlign=top;verticalLabelPosition=bottom;labelBackgroundColor=#ffffff;imageAspect=0;aspect=fixed;image=https://cdn1.iconfinder.com/data/icons/material-core/22/warning-128.png" parent="cOcfP2GvxwVNDIPguZ_v-119" vertex="1">
          <mxGeometry x="10" y="15.005" width="30" height="30" as="geometry" />
        </mxCell>
        <mxCell id="cOcfP2GvxwVNDIPguZ_v-122" value="" style="group;spacingTop=-14;" parent="1" vertex="1" connectable="0">
          <mxGeometry x="3560" y="360" width="360" height="60" as="geometry" />
        </mxCell>
        <mxCell id="cOcfP2GvxwVNDIPguZ_v-123" value="&lt;br&gt;&lt;span style=&quot;border-color: var(--border-color); color: rgb(0, 0, 0); font-family: Helvetica; font-size: 14px; font-style: normal; font-variant-ligatures: normal; font-variant-caps: normal; font-weight: 400; letter-spacing: normal; orphans: 2; text-indent: 0px; text-transform: none; widows: 2; word-spacing: 0px; -webkit-text-stroke-width: 0px; text-decoration-thickness: initial; text-decoration-style: initial; text-decoration-color: initial;&quot;&gt;&lt;span style=&quot;border-color: var(--border-color);&quot;&gt;&amp;nbsp;&amp;nbsp;&lt;/span&gt;&lt;/span&gt;&lt;span style=&quot;border-color: var(--border-color); color: rgb(0, 0, 0); font-family: Helvetica; font-size: 14px; font-style: normal; font-variant-ligatures: normal; font-variant-caps: normal; font-weight: 400; letter-spacing: normal; orphans: 2; text-indent: 0px; text-transform: none; widows: 2; word-spacing: 0px; -webkit-text-stroke-width: 0px; text-decoration-thickness: initial; text-decoration-style: initial; text-decoration-color: initial;&quot;&gt;&lt;span style=&quot;border-color: var(--border-color);&quot;&gt;&amp;nbsp; &amp;nbsp;&lt;span style=&quot;white-space: pre;&quot;&gt;&#x9;&lt;/span&gt;&lt;/span&gt;&lt;/span&gt;&lt;span style=&quot;color: rgb(0, 0, 0); font-family: Helvetica; font-size: 14px; font-style: normal; font-variant-ligatures: normal; font-variant-caps: normal; font-weight: 400; letter-spacing: normal; orphans: 2; text-indent: 0px; text-transform: none; widows: 2; word-spacing: 0px; -webkit-text-stroke-width: 0px; text-decoration-thickness: initial; text-decoration-style: initial; text-decoration-color: initial; float: none; display: inline !important;&quot;&gt;You need to perform the steps below two&amp;nbsp;&lt;/span&gt;&lt;span style=&quot;border-color: var(--border-color); color: rgb(0, 0, 0); font-family: Helvetica; font-size: 14px; font-style: normal; font-variant-ligatures: normal; font-variant-caps: normal; font-weight: 400; letter-spacing: normal; orphans: 2; text-indent: 0px; text-transform: none; widows: 2; word-spacing: 0px; -webkit-text-stroke-width: 0px; text-decoration-thickness: initial; text-decoration-style: initial; text-decoration-color: initial;&quot;&gt;times. &lt;span style=&quot;white-space: pre;&quot;&gt;&#x9;&lt;/span&gt;One time for ML 1 and a second time for ML 2&lt;/span&gt;&lt;span style=&quot;border-color: var(--border-color); color: rgb(0, 0, 0); font-family: Helvetica; font-size: 14px; font-style: normal; font-variant-ligatures: normal; font-variant-caps: normal; font-weight: 400; letter-spacing: normal; orphans: 2; text-indent: 0px; text-transform: none; widows: 2; word-spacing: 0px; -webkit-text-stroke-width: 0px; background-color: initial; text-decoration-thickness: initial; text-decoration-style: initial; text-decoration-color: initial;&quot;&gt;.&lt;/span&gt;" style="rounded=0;whiteSpace=wrap;html=1;align=center;verticalAlign=top;spacing=0;fillColor=#ffff88;strokeColor=#36393d;spacingTop=-11;" parent="cOcfP2GvxwVNDIPguZ_v-122" vertex="1">
          <mxGeometry width="360" height="50" as="geometry" />
        </mxCell>
        <mxCell id="cOcfP2GvxwVNDIPguZ_v-124" value="" style="shape=image;html=1;verticalAlign=top;verticalLabelPosition=bottom;labelBackgroundColor=#ffffff;imageAspect=0;aspect=fixed;image=https://cdn1.iconfinder.com/data/icons/material-core/22/warning-128.png" parent="cOcfP2GvxwVNDIPguZ_v-122" vertex="1">
          <mxGeometry x="10" y="15" width="30" height="30" as="geometry" />
        </mxCell>
        <mxCell id="cOcfP2GvxwVNDIPguZ_v-125" value="" style="group;spacingTop=-14;" parent="1" vertex="1" connectable="0">
          <mxGeometry x="3570" y="640" width="360" height="60" as="geometry" />
        </mxCell>
        <mxCell id="cOcfP2GvxwVNDIPguZ_v-126" value="&lt;br&gt;&lt;span style=&quot;border-color: var(--border-color); color: rgb(0, 0, 0); font-family: Helvetica; font-size: 14px; font-style: normal; font-variant-ligatures: normal; font-variant-caps: normal; font-weight: 400; letter-spacing: normal; orphans: 2; text-indent: 0px; text-transform: none; widows: 2; word-spacing: 0px; -webkit-text-stroke-width: 0px; text-decoration-thickness: initial; text-decoration-style: initial; text-decoration-color: initial;&quot;&gt;&lt;span style=&quot;border-color: var(--border-color);&quot;&gt;&amp;nbsp;&amp;nbsp;&lt;/span&gt;&lt;/span&gt;&lt;span style=&quot;border-color: var(--border-color); color: rgb(0, 0, 0); font-family: Helvetica; font-size: 14px; font-style: normal; font-variant-ligatures: normal; font-variant-caps: normal; font-weight: 400; letter-spacing: normal; orphans: 2; text-indent: 0px; text-transform: none; widows: 2; word-spacing: 0px; -webkit-text-stroke-width: 0px; text-decoration-thickness: initial; text-decoration-style: initial; text-decoration-color: initial;&quot;&gt;&lt;span style=&quot;border-color: var(--border-color);&quot;&gt;&amp;nbsp; &amp;nbsp;&lt;span style=&quot;white-space: pre;&quot;&gt;&#x9;&lt;/span&gt;&lt;/span&gt;&lt;/span&gt;&lt;span style=&quot;color: rgb(0, 0, 0); font-family: Helvetica; font-size: 14px; font-style: normal; font-variant-ligatures: normal; font-variant-caps: normal; font-weight: 400; letter-spacing: normal; orphans: 2; text-indent: 0px; text-transform: none; widows: 2; word-spacing: 0px; -webkit-text-stroke-width: 0px; text-decoration-thickness: initial; text-decoration-style: initial; text-decoration-color: initial; float: none; display: inline !important;&quot;&gt;You need to perform the steps below two&amp;nbsp;&lt;/span&gt;&lt;span style=&quot;border-color: var(--border-color); color: rgb(0, 0, 0); font-family: Helvetica; font-size: 14px; font-style: normal; font-variant-ligatures: normal; font-variant-caps: normal; font-weight: 400; letter-spacing: normal; orphans: 2; text-indent: 0px; text-transform: none; widows: 2; word-spacing: 0px; -webkit-text-stroke-width: 0px; text-decoration-thickness: initial; text-decoration-style: initial; text-decoration-color: initial;&quot;&gt;times. &lt;span style=&quot;white-space: pre;&quot;&gt;&#x9;&lt;/span&gt;One time for ML 1 and a second time for ML 2&lt;/span&gt;&lt;span style=&quot;border-color: var(--border-color); color: rgb(0, 0, 0); font-family: Helvetica; font-size: 14px; font-style: normal; font-variant-ligatures: normal; font-variant-caps: normal; font-weight: 400; letter-spacing: normal; orphans: 2; text-indent: 0px; text-transform: none; widows: 2; word-spacing: 0px; -webkit-text-stroke-width: 0px; background-color: initial; text-decoration-thickness: initial; text-decoration-style: initial; text-decoration-color: initial;&quot;&gt;.&lt;/span&gt;" style="rounded=0;whiteSpace=wrap;html=1;align=center;verticalAlign=top;spacing=0;fillColor=#ffff88;strokeColor=#36393d;spacingTop=-11;" parent="cOcfP2GvxwVNDIPguZ_v-125" vertex="1">
          <mxGeometry x="-10" y="5" width="360" height="50" as="geometry" />
        </mxCell>
        <mxCell id="cOcfP2GvxwVNDIPguZ_v-127" value="" style="shape=image;html=1;verticalAlign=top;verticalLabelPosition=bottom;labelBackgroundColor=#ffffff;imageAspect=0;aspect=fixed;image=https://cdn1.iconfinder.com/data/icons/material-core/22/warning-128.png" parent="cOcfP2GvxwVNDIPguZ_v-125" vertex="1">
          <mxGeometry x="10" y="15" width="30" height="30" as="geometry" />
        </mxCell>
        <mxCell id="cOcfP2GvxwVNDIPguZ_v-134" value="" style="shape=image;verticalLabelPosition=bottom;labelBackgroundColor=default;verticalAlign=top;aspect=fixed;imageAspect=0;image=data:image/png,iVBORw0KGgoAAAANSUhEUgAAABgAAAAYCAMAAADXqc3KAAAAA3NCSVQICAjb4U/gAAAACXBIWXMAAA3XAAAN1wFCKJt4AAAAGXRFWHRTb2Z0d2FyZQB3d3cuaW5rc2NhcGUub3Jnm+48GgAAABh0RVh0QXV0aG9yAFJvYmVydCBTemN6ZXBhbmVrX1axCAAAACd0RVh0RGVzY3JpcHRpb24AaHR0cDovL3JvYmVydC5zemN6ZXBhbmVrLnBskFlIYAAAABh0RVh0Q3JlYXRpb24gVGltZQAyMDA4LTEyLTEyWC47vwAAAFJ0RVh0Q29weXJpZ2h0AENDIEF0dHJpYnV0aW9uLVNoYXJlQWxpa2UgaHR0cDovL2NyZWF0aXZlY29tbW9ucy5vcmcvbGljZW5zZXMvYnktc2EvMy4wL16DWrwAAADAUExURf///wAAAICAgFVVVUBAQGZmZlVVVUlJSWBgYFVVVU1NTUZGRlVVVU5OTklJSUBYcFiPWJ8AAFBQUFpaWllZWURidmGSYaYLC0RidWCSYKULC0VidmGSYVBQUFBQUFBQUD9ecVBQUFRUVF2PXaIEBFBQUE9PT1BQUFBQUFBQUFBQUFJSUlBQUHKRpIW2hcNGRlBQUE9PT1BQUEBdcFBQUFyMXJGRkZ8HB7HP47botsjm+sj6yOLi4ubm5uyXl/q0tDGPnQsAAAAzdFJOUwABAgMEBQYHCAkKCwwNDiAgIH+FjKmpqaqqqqur8fL09fX19fX29/j5+vv7/Pz8/P3+/l3umJ8AAAEBSURBVChTbY/rUsIwEIW3Tdp4Q8DaRi6iopI0BCglQOulvv9bmU36j+zMntn5Ts7sBuABAoXQ9HzMP/gYvCKM6t7gu27HwSvCeC+ElLIsz91fd9ZOjdlbo2IsTdMkmdrElKByCwGIDuxASFXgKIRJGTAQYo+K92LUq3uGMJUAxbbdFr06AyFTQhzb7/aonFZVXdfG2B1sxdjcJuZ0YnUSx1EUwdUKXF/sQHj9GbgK4c1bwECIPcxf86H3/Yjw9gUg3zSb3Bt+RHgnhTg0X81BKaW1dqMx9h+DBWMzm5hRSgkhTy48WKAR2IHw/jlwFcJHE6wMlqffy/o5LSFbhxLr7B9fxDCo2z0zOAAAAABJRU5ErkJggg==;" parent="1" vertex="1">
          <mxGeometry x="4020" y="780.5" width="19.5" height="19.5" as="geometry" />
        </mxCell>
        <mxCell id="cOcfP2GvxwVNDIPguZ_v-136" value="" style="group;spacingTop=-14;" parent="1" vertex="1" connectable="0">
          <mxGeometry x="3560" y="930" width="360" height="60" as="geometry" />
        </mxCell>
        <mxCell id="cOcfP2GvxwVNDIPguZ_v-137" value="&lt;br&gt;&lt;span style=&quot;border-color: var(--border-color); color: rgb(0, 0, 0); font-family: Helvetica; font-size: 14px; font-style: normal; font-variant-ligatures: normal; font-variant-caps: normal; font-weight: 400; letter-spacing: normal; orphans: 2; text-indent: 0px; text-transform: none; widows: 2; word-spacing: 0px; -webkit-text-stroke-width: 0px; text-decoration-thickness: initial; text-decoration-style: initial; text-decoration-color: initial;&quot;&gt;&lt;span style=&quot;border-color: var(--border-color);&quot;&gt;&amp;nbsp;&amp;nbsp;&lt;/span&gt;&lt;/span&gt;&lt;span style=&quot;border-color: var(--border-color); color: rgb(0, 0, 0); font-family: Helvetica; font-size: 14px; font-style: normal; font-variant-ligatures: normal; font-variant-caps: normal; font-weight: 400; letter-spacing: normal; orphans: 2; text-indent: 0px; text-transform: none; widows: 2; word-spacing: 0px; -webkit-text-stroke-width: 0px; text-decoration-thickness: initial; text-decoration-style: initial; text-decoration-color: initial;&quot;&gt;&lt;span style=&quot;border-color: var(--border-color);&quot;&gt;&amp;nbsp; &amp;nbsp;&lt;span style=&quot;white-space: pre;&quot;&gt;&#x9;&lt;/span&gt;&lt;/span&gt;&lt;/span&gt;&lt;span style=&quot;color: rgb(0, 0, 0); font-family: Helvetica; font-size: 14px; font-style: normal; font-variant-ligatures: normal; font-variant-caps: normal; font-weight: 400; letter-spacing: normal; orphans: 2; text-indent: 0px; text-transform: none; widows: 2; word-spacing: 0px; -webkit-text-stroke-width: 0px; text-decoration-thickness: initial; text-decoration-style: initial; text-decoration-color: initial; float: none; display: inline !important;&quot;&gt;You need to perform the steps below two&amp;nbsp;&lt;/span&gt;&lt;span style=&quot;border-color: var(--border-color); color: rgb(0, 0, 0); font-family: Helvetica; font-size: 14px; font-style: normal; font-variant-ligatures: normal; font-variant-caps: normal; font-weight: 400; letter-spacing: normal; orphans: 2; text-indent: 0px; text-transform: none; widows: 2; word-spacing: 0px; -webkit-text-stroke-width: 0px; text-decoration-thickness: initial; text-decoration-style: initial; text-decoration-color: initial;&quot;&gt;times. &lt;span style=&quot;white-space: pre;&quot;&gt;&#x9;&lt;/span&gt;One time for ML 1 and a second time for ML 2&lt;/span&gt;&lt;span style=&quot;border-color: var(--border-color); color: rgb(0, 0, 0); font-family: Helvetica; font-size: 14px; font-style: normal; font-variant-ligatures: normal; font-variant-caps: normal; font-weight: 400; letter-spacing: normal; orphans: 2; text-indent: 0px; text-transform: none; widows: 2; word-spacing: 0px; -webkit-text-stroke-width: 0px; background-color: initial; text-decoration-thickness: initial; text-decoration-style: initial; text-decoration-color: initial;&quot;&gt;.&lt;/span&gt;" style="rounded=0;whiteSpace=wrap;html=1;align=center;verticalAlign=top;spacing=0;fillColor=#ffff88;strokeColor=#36393d;spacingTop=-11;" parent="cOcfP2GvxwVNDIPguZ_v-136" vertex="1">
          <mxGeometry x="-10" y="5" width="360" height="50" as="geometry" />
        </mxCell>
        <mxCell id="cOcfP2GvxwVNDIPguZ_v-138" value="" style="shape=image;html=1;verticalAlign=top;verticalLabelPosition=bottom;labelBackgroundColor=#ffffff;imageAspect=0;aspect=fixed;image=https://cdn1.iconfinder.com/data/icons/material-core/22/warning-128.png" parent="cOcfP2GvxwVNDIPguZ_v-136" vertex="1">
          <mxGeometry x="10" y="15" width="30" height="30" as="geometry" />
        </mxCell>
        <mxCell id="cOcfP2GvxwVNDIPguZ_v-139" value="" style="shape=image;verticalLabelPosition=bottom;labelBackgroundColor=default;verticalAlign=top;aspect=fixed;imageAspect=0;image=data:image/png,iVBORw0KGgoAAAANSUhEUgAAABgAAAAYCAYAAADgdz34AAAABmJLR0QA/wD/AP+gvaeTAAAACXBIWXMAAAOxAAADsQH1g+1JAAAAB3RJTUUH4AIOASch1+FdfQAAA35JREFUSMe1lV1sU2UYx3/vOW/PaTu6dutO52SsIgGiFBJxQVlAEogmKCS9IBGNoN5qiBou9MILvPHCGE2M0V2p8cJovFDiAiaKmS4aNNkGc6BbW6YwnNB2du363XNeL9A57NZ9RJ+7N/k/z/88z/O+vwP/cwiA5145sic97fskk5V+pZRYbbG1oZp97LHElQ3riq+53QNvzhkcPv50ptXa7m8LttDhpAFnhaU1prQgqVSaamGIN14cVUoTu7yub76TALN56dt0RysuXUe3NQ48+BCOszwTTdPoO3Ualy5ps9oYHnTd+HCbHuCGwUIzGRoaIplMNixuWRbd3d0Lz14oF4BcLDkSiVCr1RoaSCmX7HBRRTweJ51ON0wOBoNEIpHVGXR2dmJZVsNk0zRX30EymSSTyTRMDgQCBAKBubNPVNizbQuVyiiGUV3YQDk2sVhsrsBSEYvFUI4NOmyu/sZdBw5x6ae11MTIrhMn9mk3GSihkdN8DMWnVvQKHL0Z6+owt0z0cdm+jHfrfkJdj+7v3vrDZ3UdFKRv5Thwamwb/xJzTZZw/lPOv3uWP3YcdChUfpT/BW82XOgj5Joh0FHi1wk3eqmE//w7sb298RdkPZwUATuDvkwiaYUZwskRREsBhM7MtIG3qcy6p1pO0rvAkoVy8JsaPTt7mI89u1KmXC7XGUy99Tw+d562jirxn5uQmo61w8G32T2z6DX1eDzYwJlzEwCsb28hEg7R3Nx8k640Nky1eB2jo0A2a1AuSnJVxT1HWudhcJGo2YpUtkAqW2C2VKkXKEXm5NsYTQUCQcXkLwa6JhlsCiMkSxssFdmvPkbOTuK1ikxNmuC4yBl+Rtbc9i+QL7Y8ITCkjiF1pF4vu/7FR2Dm8Xo0ktckAo3EnQcXRkVrS9VJpdKa3+9Hx6FsOnhMnYd3b/lnZNUKpb/omsvlcI6+hD09xsVTvehCMu3rJKZ8tAer9b/Mc+MPjPd+cPvG7KxE1zTu7trYEMUzmQz3791HIpEgdfUKbYN9nGnfhCsgeebxBOFbSyB40mMMvCcACuXdhwW8D7iWM//PTzcR7nqZ/v5+8vlLHH1ilFDIni+54DacnUJ8m5MAXnPgw2Lxvu+VpraDWnLxg4Ptx679fvbeTObi8LPHx153u5Wt/t6dElnT1L8WYqC0ajREo9FXo9HoI8vR/gnOTUKSaMiJdQAAAABJRU5ErkJggg==;direction=south;" parent="1" vertex="1">
          <mxGeometry x="3731.5" y="896.5" width="17" height="17" as="geometry" />
        </mxCell>
        <mxCell id="cOcfP2GvxwVNDIPguZ_v-141" value="" style="group;spacingTop=-14;" parent="1" vertex="1" connectable="0">
          <mxGeometry x="3570" y="1210" width="360" height="60" as="geometry" />
        </mxCell>
        <mxCell id="cOcfP2GvxwVNDIPguZ_v-142" value="&lt;br&gt;&lt;span style=&quot;border-color: var(--border-color); color: rgb(0, 0, 0); font-family: Helvetica; font-size: 14px; font-style: normal; font-variant-ligatures: normal; font-variant-caps: normal; font-weight: 400; letter-spacing: normal; orphans: 2; text-indent: 0px; text-transform: none; widows: 2; word-spacing: 0px; -webkit-text-stroke-width: 0px; text-decoration-thickness: initial; text-decoration-style: initial; text-decoration-color: initial;&quot;&gt;&lt;span style=&quot;border-color: var(--border-color);&quot;&gt;&amp;nbsp;&amp;nbsp;&lt;/span&gt;&lt;/span&gt;&lt;span style=&quot;border-color: var(--border-color); color: rgb(0, 0, 0); font-family: Helvetica; font-size: 14px; font-style: normal; font-variant-ligatures: normal; font-variant-caps: normal; font-weight: 400; letter-spacing: normal; orphans: 2; text-indent: 0px; text-transform: none; widows: 2; word-spacing: 0px; -webkit-text-stroke-width: 0px; text-decoration-thickness: initial; text-decoration-style: initial; text-decoration-color: initial;&quot;&gt;&lt;span style=&quot;border-color: var(--border-color);&quot;&gt;&amp;nbsp; &amp;nbsp;&lt;span style=&quot;white-space: pre;&quot;&gt;&#x9;&lt;/span&gt;&lt;/span&gt;&lt;/span&gt;&lt;span style=&quot;color: rgb(0, 0, 0); font-family: Helvetica; font-size: 14px; font-style: normal; font-variant-ligatures: normal; font-variant-caps: normal; font-weight: 400; letter-spacing: normal; orphans: 2; text-indent: 0px; text-transform: none; widows: 2; word-spacing: 0px; -webkit-text-stroke-width: 0px; text-decoration-thickness: initial; text-decoration-style: initial; text-decoration-color: initial; float: none; display: inline !important;&quot;&gt;You need to perform the steps below two&amp;nbsp;&lt;/span&gt;&lt;span style=&quot;border-color: var(--border-color); color: rgb(0, 0, 0); font-family: Helvetica; font-size: 14px; font-style: normal; font-variant-ligatures: normal; font-variant-caps: normal; font-weight: 400; letter-spacing: normal; orphans: 2; text-indent: 0px; text-transform: none; widows: 2; word-spacing: 0px; -webkit-text-stroke-width: 0px; text-decoration-thickness: initial; text-decoration-style: initial; text-decoration-color: initial;&quot;&gt;times. &lt;span style=&quot;white-space: pre;&quot;&gt;&#x9;&lt;/span&gt;One time for ML 1 and a second time for ML 2&lt;/span&gt;&lt;span style=&quot;border-color: var(--border-color); color: rgb(0, 0, 0); font-family: Helvetica; font-size: 14px; font-style: normal; font-variant-ligatures: normal; font-variant-caps: normal; font-weight: 400; letter-spacing: normal; orphans: 2; text-indent: 0px; text-transform: none; widows: 2; word-spacing: 0px; -webkit-text-stroke-width: 0px; background-color: initial; text-decoration-thickness: initial; text-decoration-style: initial; text-decoration-color: initial;&quot;&gt;.&lt;/span&gt;" style="rounded=0;whiteSpace=wrap;html=1;align=center;verticalAlign=top;spacing=0;fillColor=#ffff88;strokeColor=#36393d;spacingTop=-11;" parent="cOcfP2GvxwVNDIPguZ_v-141" vertex="1">
          <mxGeometry x="-10" y="5" width="360" height="50" as="geometry" />
        </mxCell>
        <mxCell id="cOcfP2GvxwVNDIPguZ_v-143" value="" style="shape=image;html=1;verticalAlign=top;verticalLabelPosition=bottom;labelBackgroundColor=#ffffff;imageAspect=0;aspect=fixed;image=https://cdn1.iconfinder.com/data/icons/material-core/22/warning-128.png" parent="cOcfP2GvxwVNDIPguZ_v-141" vertex="1">
          <mxGeometry x="10" y="15" width="30" height="30" as="geometry" />
        </mxCell>
        <mxCell id="cOcfP2GvxwVNDIPguZ_v-144" value="" style="group;spacingTop=-14;" parent="1" vertex="1" connectable="0">
          <mxGeometry x="3570" y="1480" width="360" height="60" as="geometry" />
        </mxCell>
        <mxCell id="cOcfP2GvxwVNDIPguZ_v-145" value="&lt;br&gt;&lt;span style=&quot;border-color: var(--border-color); color: rgb(0, 0, 0); font-family: Helvetica; font-size: 14px; font-style: normal; font-variant-ligatures: normal; font-variant-caps: normal; font-weight: 400; letter-spacing: normal; orphans: 2; text-indent: 0px; text-transform: none; widows: 2; word-spacing: 0px; -webkit-text-stroke-width: 0px; text-decoration-thickness: initial; text-decoration-style: initial; text-decoration-color: initial;&quot;&gt;&lt;span style=&quot;border-color: var(--border-color);&quot;&gt;&amp;nbsp;&amp;nbsp;&lt;/span&gt;&lt;/span&gt;&lt;span style=&quot;border-color: var(--border-color); color: rgb(0, 0, 0); font-family: Helvetica; font-size: 14px; font-style: normal; font-variant-ligatures: normal; font-variant-caps: normal; font-weight: 400; letter-spacing: normal; orphans: 2; text-indent: 0px; text-transform: none; widows: 2; word-spacing: 0px; -webkit-text-stroke-width: 0px; text-decoration-thickness: initial; text-decoration-style: initial; text-decoration-color: initial;&quot;&gt;&lt;span style=&quot;border-color: var(--border-color);&quot;&gt;&amp;nbsp; &amp;nbsp;&lt;span style=&quot;white-space: pre;&quot;&gt;&#x9;&lt;/span&gt;&lt;/span&gt;&lt;/span&gt;&lt;span style=&quot;color: rgb(0, 0, 0); font-family: Helvetica; font-size: 14px; font-style: normal; font-variant-ligatures: normal; font-variant-caps: normal; font-weight: 400; letter-spacing: normal; orphans: 2; text-indent: 0px; text-transform: none; widows: 2; word-spacing: 0px; -webkit-text-stroke-width: 0px; text-decoration-thickness: initial; text-decoration-style: initial; text-decoration-color: initial; float: none; display: inline !important;&quot;&gt;You need to perform the steps below two&amp;nbsp;&lt;/span&gt;&lt;span style=&quot;border-color: var(--border-color); color: rgb(0, 0, 0); font-family: Helvetica; font-size: 14px; font-style: normal; font-variant-ligatures: normal; font-variant-caps: normal; font-weight: 400; letter-spacing: normal; orphans: 2; text-indent: 0px; text-transform: none; widows: 2; word-spacing: 0px; -webkit-text-stroke-width: 0px; text-decoration-thickness: initial; text-decoration-style: initial; text-decoration-color: initial;&quot;&gt;times. &lt;span style=&quot;white-space: pre;&quot;&gt;&#x9;&lt;/span&gt;One time for ML 1 and a second time for ML 2&lt;/span&gt;&lt;span style=&quot;border-color: var(--border-color); color: rgb(0, 0, 0); font-family: Helvetica; font-size: 14px; font-style: normal; font-variant-ligatures: normal; font-variant-caps: normal; font-weight: 400; letter-spacing: normal; orphans: 2; text-indent: 0px; text-transform: none; widows: 2; word-spacing: 0px; -webkit-text-stroke-width: 0px; background-color: initial; text-decoration-thickness: initial; text-decoration-style: initial; text-decoration-color: initial;&quot;&gt;.&lt;/span&gt;" style="rounded=0;whiteSpace=wrap;html=1;align=center;verticalAlign=top;spacing=0;fillColor=#ffff88;strokeColor=#36393d;spacingTop=-11;" parent="cOcfP2GvxwVNDIPguZ_v-144" vertex="1">
          <mxGeometry x="-10" y="5" width="360" height="50" as="geometry" />
        </mxCell>
        <mxCell id="cOcfP2GvxwVNDIPguZ_v-146" value="" style="shape=image;html=1;verticalAlign=top;verticalLabelPosition=bottom;labelBackgroundColor=#ffffff;imageAspect=0;aspect=fixed;image=https://cdn1.iconfinder.com/data/icons/material-core/22/warning-128.png" parent="cOcfP2GvxwVNDIPguZ_v-144" vertex="1">
          <mxGeometry x="10" y="15" width="30" height="30" as="geometry" />
        </mxCell>
        <mxCell id="cOcfP2GvxwVNDIPguZ_v-147" value="" style="shape=image;verticalLabelPosition=bottom;labelBackgroundColor=default;verticalAlign=top;aspect=fixed;imageAspect=0;image=data:image/png,iVBORw0KGgoAAAANSUhEUgAAABgAAAAYCAYAAADgdz34AAAABmJLR0QA/wD/AP+gvaeTAAAACXBIWXMAAAOxAAADsQH1g+1JAAAAB3RJTUUH4AIOASch1+FdfQAAA35JREFUSMe1lV1sU2UYx3/vOW/PaTu6dutO52SsIgGiFBJxQVlAEogmKCS9IBGNoN5qiBou9MILvPHCGE2M0V2p8cJovFDiAiaKmS4aNNkGc6BbW6YwnNB2du363XNeL9A57NZ9RJ+7N/k/z/88z/O+vwP/cwiA5145sic97fskk5V+pZRYbbG1oZp97LHElQ3riq+53QNvzhkcPv50ptXa7m8LttDhpAFnhaU1prQgqVSaamGIN14cVUoTu7yub76TALN56dt0RysuXUe3NQ48+BCOszwTTdPoO3Ualy5ps9oYHnTd+HCbHuCGwUIzGRoaIplMNixuWRbd3d0Lz14oF4BcLDkSiVCr1RoaSCmX7HBRRTweJ51ON0wOBoNEIpHVGXR2dmJZVsNk0zRX30EymSSTyTRMDgQCBAKBubNPVNizbQuVyiiGUV3YQDk2sVhsrsBSEYvFUI4NOmyu/sZdBw5x6ae11MTIrhMn9mk3GSihkdN8DMWnVvQKHL0Z6+owt0z0cdm+jHfrfkJdj+7v3vrDZ3UdFKRv5Thwamwb/xJzTZZw/lPOv3uWP3YcdChUfpT/BW82XOgj5Joh0FHi1wk3eqmE//w7sb298RdkPZwUATuDvkwiaYUZwskRREsBhM7MtIG3qcy6p1pO0rvAkoVy8JsaPTt7mI89u1KmXC7XGUy99Tw+d562jirxn5uQmo61w8G32T2z6DX1eDzYwJlzEwCsb28hEg7R3Nx8k640Nky1eB2jo0A2a1AuSnJVxT1HWudhcJGo2YpUtkAqW2C2VKkXKEXm5NsYTQUCQcXkLwa6JhlsCiMkSxssFdmvPkbOTuK1ikxNmuC4yBl+Rtbc9i+QL7Y8ITCkjiF1pF4vu/7FR2Dm8Xo0ktckAo3EnQcXRkVrS9VJpdKa3+9Hx6FsOnhMnYd3b/lnZNUKpb/omsvlcI6+hD09xsVTvehCMu3rJKZ8tAer9b/Mc+MPjPd+cPvG7KxE1zTu7trYEMUzmQz3791HIpEgdfUKbYN9nGnfhCsgeebxBOFbSyB40mMMvCcACuXdhwW8D7iWM//PTzcR7nqZ/v5+8vlLHH1ilFDIni+54DacnUJ8m5MAXnPgw2Lxvu+VpraDWnLxg4Ptx679fvbeTObi8LPHx153u5Wt/t6dElnT1L8WYqC0ajREo9FXo9HoI8vR/gnOTUKSaMiJdQAAAABJRU5ErkJggg==;direction=south;" parent="1" vertex="1">
          <mxGeometry x="3731.5" y="1457.5" width="17" height="17" as="geometry" />
        </mxCell>
        <mxCell id="cOcfP2GvxwVNDIPguZ_v-148" value="" style="shape=image;verticalLabelPosition=bottom;labelBackgroundColor=default;verticalAlign=top;aspect=fixed;imageAspect=0;image=data:image/png,iVBORw0KGgoAAAANSUhEUgAAABgAAAAYCAMAAADXqc3KAAAAA3NCSVQICAjb4U/gAAAACXBIWXMAAA3XAAAN1wFCKJt4AAAAGXRFWHRTb2Z0d2FyZQB3d3cuaW5rc2NhcGUub3Jnm+48GgAAABh0RVh0QXV0aG9yAFJvYmVydCBTemN6ZXBhbmVrX1axCAAAACd0RVh0RGVzY3JpcHRpb24AaHR0cDovL3JvYmVydC5zemN6ZXBhbmVrLnBskFlIYAAAABh0RVh0Q3JlYXRpb24gVGltZQAyMDA4LTEyLTEyWC47vwAAAFJ0RVh0Q29weXJpZ2h0AENDIEF0dHJpYnV0aW9uLVNoYXJlQWxpa2UgaHR0cDovL2NyZWF0aXZlY29tbW9ucy5vcmcvbGljZW5zZXMvYnktc2EvMy4wL16DWrwAAADAUExURf///wAAAICAgFVVVUBAQGZmZlVVVUlJSWBgYFVVVU1NTUZGRlVVVU5OTklJSUBYcFiPWJ8AAFBQUFpaWllZWURidmGSYaYLC0RidWCSYKULC0VidmGSYVBQUFBQUFBQUD9ecVBQUFRUVF2PXaIEBFBQUE9PT1BQUFBQUFBQUFBQUFJSUlBQUHKRpIW2hcNGRlBQUE9PT1BQUEBdcFBQUFyMXJGRkZ8HB7HP47botsjm+sj6yOLi4ubm5uyXl/q0tDGPnQsAAAAzdFJOUwABAgMEBQYHCAkKCwwNDiAgIH+FjKmpqaqqqqur8fL09fX19fX29/j5+vv7/Pz8/P3+/l3umJ8AAAEBSURBVChTbY/rUsIwEIW3Tdp4Q8DaRi6iopI0BCglQOulvv9bmU36j+zMntn5Ts7sBuABAoXQ9HzMP/gYvCKM6t7gu27HwSvCeC+ElLIsz91fd9ZOjdlbo2IsTdMkmdrElKByCwGIDuxASFXgKIRJGTAQYo+K92LUq3uGMJUAxbbdFr06AyFTQhzb7/aonFZVXdfG2B1sxdjcJuZ0YnUSx1EUwdUKXF/sQHj9GbgK4c1bwECIPcxf86H3/Yjw9gUg3zSb3Bt+RHgnhTg0X81BKaW1dqMx9h+DBWMzm5hRSgkhTy48WKAR2IHw/jlwFcJHE6wMlqffy/o5LSFbhxLr7B9fxDCo2z0zOAAAAABJRU5ErkJggg==;" parent="1" vertex="1">
          <mxGeometry x="4020" y="1341.5" width="19.5" height="19.5" as="geometry" />
        </mxCell>
        <mxCell id="Vji4ugp31_4n16cxdv0u-1" value="" style="group;spacingTop=-14;" vertex="1" connectable="0" parent="1">
          <mxGeometry x="3570" y="1760" width="360" height="60" as="geometry" />
        </mxCell>
        <mxCell id="Vji4ugp31_4n16cxdv0u-2" value="&lt;br&gt;&lt;span style=&quot;border-color: var(--border-color); color: rgb(0, 0, 0); font-family: Helvetica; font-size: 14px; font-style: normal; font-variant-ligatures: normal; font-variant-caps: normal; font-weight: 400; letter-spacing: normal; orphans: 2; text-indent: 0px; text-transform: none; widows: 2; word-spacing: 0px; -webkit-text-stroke-width: 0px; text-decoration-thickness: initial; text-decoration-style: initial; text-decoration-color: initial;&quot;&gt;&lt;span style=&quot;border-color: var(--border-color);&quot;&gt;&amp;nbsp;&amp;nbsp;&lt;/span&gt;&lt;/span&gt;&lt;span style=&quot;border-color: var(--border-color); color: rgb(0, 0, 0); font-family: Helvetica; font-size: 14px; font-style: normal; font-variant-ligatures: normal; font-variant-caps: normal; font-weight: 400; letter-spacing: normal; orphans: 2; text-indent: 0px; text-transform: none; widows: 2; word-spacing: 0px; -webkit-text-stroke-width: 0px; text-decoration-thickness: initial; text-decoration-style: initial; text-decoration-color: initial;&quot;&gt;&lt;span style=&quot;border-color: var(--border-color);&quot;&gt;&amp;nbsp; &amp;nbsp;&lt;span style=&quot;white-space: pre;&quot;&gt;&#x9;&lt;/span&gt;&lt;/span&gt;&lt;/span&gt;&lt;span style=&quot;color: rgb(0, 0, 0); font-family: Helvetica; font-size: 14px; font-style: normal; font-variant-ligatures: normal; font-variant-caps: normal; font-weight: 400; letter-spacing: normal; orphans: 2; text-indent: 0px; text-transform: none; widows: 2; word-spacing: 0px; -webkit-text-stroke-width: 0px; text-decoration-thickness: initial; text-decoration-style: initial; text-decoration-color: initial; float: none; display: inline !important;&quot;&gt;You need to perform the steps below two&amp;nbsp;&lt;/span&gt;&lt;span style=&quot;border-color: var(--border-color); color: rgb(0, 0, 0); font-family: Helvetica; font-size: 14px; font-style: normal; font-variant-ligatures: normal; font-variant-caps: normal; font-weight: 400; letter-spacing: normal; orphans: 2; text-indent: 0px; text-transform: none; widows: 2; word-spacing: 0px; -webkit-text-stroke-width: 0px; text-decoration-thickness: initial; text-decoration-style: initial; text-decoration-color: initial;&quot;&gt;times. &lt;span style=&quot;white-space: pre;&quot;&gt;&#x9;&lt;/span&gt;One time for ML 1 and a second time for ML 2&lt;/span&gt;&lt;span style=&quot;border-color: var(--border-color); color: rgb(0, 0, 0); font-family: Helvetica; font-size: 14px; font-style: normal; font-variant-ligatures: normal; font-variant-caps: normal; font-weight: 400; letter-spacing: normal; orphans: 2; text-indent: 0px; text-transform: none; widows: 2; word-spacing: 0px; -webkit-text-stroke-width: 0px; background-color: initial; text-decoration-thickness: initial; text-decoration-style: initial; text-decoration-color: initial;&quot;&gt;.&lt;/span&gt;" style="rounded=0;whiteSpace=wrap;html=1;align=center;verticalAlign=top;spacing=0;fillColor=#ffff88;strokeColor=#36393d;spacingTop=-11;" vertex="1" parent="Vji4ugp31_4n16cxdv0u-1">
          <mxGeometry x="-10" y="5" width="360" height="50" as="geometry" />
        </mxCell>
        <mxCell id="Vji4ugp31_4n16cxdv0u-3" value="" style="shape=image;html=1;verticalAlign=top;verticalLabelPosition=bottom;labelBackgroundColor=#ffffff;imageAspect=0;aspect=fixed;image=https://cdn1.iconfinder.com/data/icons/material-core/22/warning-128.png" vertex="1" parent="Vji4ugp31_4n16cxdv0u-1">
          <mxGeometry x="10" y="15" width="30" height="30" as="geometry" />
        </mxCell>
        <mxCell id="Vji4ugp31_4n16cxdv0u-4" value="" style="html=1;shadow=0;dashed=0;align=center;verticalAlign=middle;shape=mxgraph.arrows2.arrow;dy=0;dx=60;notch=60;rounded=1;strokeWidth=1;fillColor=#0D5B9D;fontSize=30;rotation=90;strokeColor=none;movable=1;resizable=1;rotatable=1;deletable=1;editable=1;locked=0;connectable=1;" vertex="1" parent="1">
          <mxGeometry x="1760" y="2691" width="280" height="280" as="geometry" />
        </mxCell>
        <mxCell id="Vji4ugp31_4n16cxdv0u-5" value="" style="rounded=0;whiteSpace=wrap;html=1;movable=1;resizable=1;rotatable=1;deletable=1;editable=1;locked=0;connectable=1;verticalAlign=top;align=left;fontSize=14;spacingLeft=5;spacingTop=5;" vertex="1" parent="1">
          <mxGeometry x="2080" y="2691" width="2000" height="220" as="geometry" />
        </mxCell>
        <mxCell id="Vji4ugp31_4n16cxdv0u-6" value="STEP 9" style="text;html=1;strokeColor=none;fillColor=none;align=center;verticalAlign=middle;whiteSpace=wrap;rounded=0;shadow=0;dashed=0;fontSize=40;fontFamily=Helvetica;fontColor=#FFFFFF;fontStyle=1;movable=1;resizable=1;rotatable=1;deletable=1;editable=1;locked=0;connectable=1;" vertex="1" parent="1">
          <mxGeometry x="1760" y="2771" width="280" height="60" as="geometry" />
        </mxCell>
        <mxCell id="Vji4ugp31_4n16cxdv0u-7" value="&lt;p class=&quot;MsoNormal&quot; style=&quot;font-size: 21px;&quot;&gt;Loading data into QGIS&lt;/p&gt;" style="rounded=0;whiteSpace=wrap;html=1;fillColor=none;strokeWidth=4;fontStyle=1;fontSize=21;fontColor=#FFFFFF;movable=1;resizable=1;rotatable=1;deletable=1;editable=1;locked=0;connectable=1;" vertex="1" parent="1">
          <mxGeometry x="1770" y="2841" width="260" height="70" as="geometry" />
        </mxCell>
        <mxCell id="Vji4ugp31_4n16cxdv0u-8" value="" style="rounded=0;whiteSpace=wrap;html=1;align=left;fontSize=14;fillColor=#fff2cc;strokeColor=#d6b656;opacity=50;movable=1;resizable=1;rotatable=1;deletable=1;editable=1;locked=0;connectable=1;verticalAlign=top;spacingLeft=5;spacingTop=5;" vertex="1" parent="1">
          <mxGeometry x="2080" y="2690" width="400" height="220" as="geometry" />
        </mxCell>
        <mxCell id="Vji4ugp31_4n16cxdv0u-9" value="" style="rounded=0;whiteSpace=wrap;html=1;align=left;fontSize=14;fillColor=#ffe6cc;strokeColor=#d79b00;opacity=50;movable=1;resizable=1;rotatable=1;deletable=1;editable=1;locked=0;connectable=1;verticalAlign=top;spacingLeft=5;spacingTop=5;" vertex="1" parent="1">
          <mxGeometry x="2540" y="2690" width="400" height="220" as="geometry" />
        </mxCell>
        <mxCell id="Vji4ugp31_4n16cxdv0u-10" value="" style="rounded=0;whiteSpace=wrap;html=1;align=left;fontSize=14;fillColor=#f8cecc;strokeColor=#b85450;opacity=50;movable=1;resizable=1;rotatable=1;deletable=1;editable=1;locked=0;connectable=1;verticalAlign=top;spacingLeft=5;spacingTop=5;" vertex="1" parent="1">
          <mxGeometry x="3000" y="2690" width="400" height="220" as="geometry" />
        </mxCell>
        <mxCell id="Vji4ugp31_4n16cxdv0u-11" value="" style="rounded=0;whiteSpace=wrap;html=1;align=left;fontSize=14;fillColor=#d5e8d4;strokeColor=#82b366;opacity=50;movable=1;resizable=1;rotatable=1;deletable=1;editable=1;locked=0;connectable=1;verticalAlign=top;spacingLeft=5;spacingTop=5;" vertex="1" parent="1">
          <mxGeometry x="3460" y="2690" width="620" height="220" as="geometry" />
        </mxCell>
        <mxCell id="Vji4ugp31_4n16cxdv0u-12" value="" style="html=1;shadow=0;dashed=0;align=center;verticalAlign=middle;shape=mxgraph.arrows2.arrow;dy=0;dx=60;notch=60;rounded=1;strokeWidth=1;fillColor=#0D5B9D;fontSize=30;rotation=90;strokeColor=none;movable=1;resizable=1;rotatable=1;deletable=1;editable=1;locked=0;connectable=1;" vertex="1" parent="1">
          <mxGeometry x="1760" y="2981" width="280" height="280" as="geometry" />
        </mxCell>
        <mxCell id="Vji4ugp31_4n16cxdv0u-13" value="" style="rounded=0;whiteSpace=wrap;html=1;movable=1;resizable=1;rotatable=1;deletable=1;editable=1;locked=0;connectable=1;verticalAlign=top;align=left;fontSize=14;spacingLeft=5;spacingTop=5;" vertex="1" parent="1">
          <mxGeometry x="2080" y="2981" width="2000" height="220" as="geometry" />
        </mxCell>
        <mxCell id="Vji4ugp31_4n16cxdv0u-14" value="STEP 9" style="text;html=1;strokeColor=none;fillColor=none;align=center;verticalAlign=middle;whiteSpace=wrap;rounded=0;shadow=0;dashed=0;fontSize=40;fontFamily=Helvetica;fontColor=#FFFFFF;fontStyle=1;movable=1;resizable=1;rotatable=1;deletable=1;editable=1;locked=0;connectable=1;" vertex="1" parent="1">
          <mxGeometry x="1760" y="3061" width="280" height="60" as="geometry" />
        </mxCell>
        <mxCell id="Vji4ugp31_4n16cxdv0u-15" value="&lt;p class=&quot;MsoNormal&quot; style=&quot;font-size: 21px;&quot;&gt;Loading data into QGIS&lt;/p&gt;" style="rounded=0;whiteSpace=wrap;html=1;fillColor=none;strokeWidth=4;fontStyle=1;fontSize=21;fontColor=#FFFFFF;movable=1;resizable=1;rotatable=1;deletable=1;editable=1;locked=0;connectable=1;" vertex="1" parent="1">
          <mxGeometry x="1770" y="3131" width="260" height="70" as="geometry" />
        </mxCell>
        <mxCell id="Vji4ugp31_4n16cxdv0u-16" value="" style="rounded=0;whiteSpace=wrap;html=1;align=left;fontSize=14;fillColor=#fff2cc;strokeColor=#d6b656;opacity=50;movable=1;resizable=1;rotatable=1;deletable=1;editable=1;locked=0;connectable=1;verticalAlign=top;spacingLeft=5;spacingTop=5;" vertex="1" parent="1">
          <mxGeometry x="2080" y="2980" width="400" height="220" as="geometry" />
        </mxCell>
        <mxCell id="Vji4ugp31_4n16cxdv0u-17" value="" style="rounded=0;whiteSpace=wrap;html=1;align=left;fontSize=14;fillColor=#ffe6cc;strokeColor=#d79b00;opacity=50;movable=1;resizable=1;rotatable=1;deletable=1;editable=1;locked=0;connectable=1;verticalAlign=top;spacingLeft=5;spacingTop=5;" vertex="1" parent="1">
          <mxGeometry x="2540" y="2980" width="400" height="220" as="geometry" />
        </mxCell>
        <mxCell id="Vji4ugp31_4n16cxdv0u-18" value="" style="rounded=0;whiteSpace=wrap;html=1;align=left;fontSize=14;fillColor=#f8cecc;strokeColor=#b85450;opacity=50;movable=1;resizable=1;rotatable=1;deletable=1;editable=1;locked=0;connectable=1;verticalAlign=top;spacingLeft=5;spacingTop=5;" vertex="1" parent="1">
          <mxGeometry x="3000" y="2980" width="400" height="220" as="geometry" />
        </mxCell>
        <mxCell id="Vji4ugp31_4n16cxdv0u-19" value="" style="rounded=0;whiteSpace=wrap;html=1;align=left;fontSize=14;fillColor=#d5e8d4;strokeColor=#82b366;opacity=50;movable=1;resizable=1;rotatable=1;deletable=1;editable=1;locked=0;connectable=1;verticalAlign=top;spacingLeft=5;spacingTop=5;" vertex="1" parent="1">
          <mxGeometry x="3460" y="2980" width="620" height="220" as="geometry" />
        </mxCell>
        <mxCell id="Vji4ugp31_4n16cxdv0u-20" value="" style="html=1;shadow=0;dashed=0;align=center;verticalAlign=middle;shape=mxgraph.arrows2.arrow;dy=0;dx=60;notch=60;rounded=1;strokeWidth=1;fillColor=#0D5B9D;fontSize=30;rotation=90;strokeColor=none;movable=1;resizable=1;rotatable=1;deletable=1;editable=1;locked=0;connectable=1;" vertex="1" parent="1">
          <mxGeometry x="1760" y="3271" width="280" height="280" as="geometry" />
        </mxCell>
        <mxCell id="Vji4ugp31_4n16cxdv0u-21" value="" style="rounded=0;whiteSpace=wrap;html=1;movable=1;resizable=1;rotatable=1;deletable=1;editable=1;locked=0;connectable=1;verticalAlign=top;align=left;fontSize=14;spacingLeft=5;spacingTop=5;" vertex="1" parent="1">
          <mxGeometry x="2080" y="3271" width="2000" height="220" as="geometry" />
        </mxCell>
        <mxCell id="Vji4ugp31_4n16cxdv0u-22" value="STEP 9" style="text;html=1;strokeColor=none;fillColor=none;align=center;verticalAlign=middle;whiteSpace=wrap;rounded=0;shadow=0;dashed=0;fontSize=40;fontFamily=Helvetica;fontColor=#FFFFFF;fontStyle=1;movable=1;resizable=1;rotatable=1;deletable=1;editable=1;locked=0;connectable=1;" vertex="1" parent="1">
          <mxGeometry x="1760" y="3351" width="280" height="60" as="geometry" />
        </mxCell>
        <mxCell id="Vji4ugp31_4n16cxdv0u-23" value="&lt;p class=&quot;MsoNormal&quot; style=&quot;font-size: 21px;&quot;&gt;Loading data into QGIS&lt;/p&gt;" style="rounded=0;whiteSpace=wrap;html=1;fillColor=none;strokeWidth=4;fontStyle=1;fontSize=21;fontColor=#FFFFFF;movable=1;resizable=1;rotatable=1;deletable=1;editable=1;locked=0;connectable=1;" vertex="1" parent="1">
          <mxGeometry x="1770" y="3421" width="260" height="70" as="geometry" />
        </mxCell>
        <mxCell id="Vji4ugp31_4n16cxdv0u-24" value="" style="rounded=0;whiteSpace=wrap;html=1;align=left;fontSize=14;fillColor=#fff2cc;strokeColor=#d6b656;opacity=50;movable=1;resizable=1;rotatable=1;deletable=1;editable=1;locked=0;connectable=1;verticalAlign=top;spacingLeft=5;spacingTop=5;" vertex="1" parent="1">
          <mxGeometry x="2080" y="3270" width="400" height="220" as="geometry" />
        </mxCell>
        <mxCell id="Vji4ugp31_4n16cxdv0u-25" value="" style="rounded=0;whiteSpace=wrap;html=1;align=left;fontSize=14;fillColor=#ffe6cc;strokeColor=#d79b00;opacity=50;movable=1;resizable=1;rotatable=1;deletable=1;editable=1;locked=0;connectable=1;verticalAlign=top;spacingLeft=5;spacingTop=5;" vertex="1" parent="1">
          <mxGeometry x="2540" y="3270" width="400" height="220" as="geometry" />
        </mxCell>
        <mxCell id="Vji4ugp31_4n16cxdv0u-26" value="" style="rounded=0;whiteSpace=wrap;html=1;align=left;fontSize=14;fillColor=#f8cecc;strokeColor=#b85450;opacity=50;movable=1;resizable=1;rotatable=1;deletable=1;editable=1;locked=0;connectable=1;verticalAlign=top;spacingLeft=5;spacingTop=5;" vertex="1" parent="1">
          <mxGeometry x="3000" y="3270" width="400" height="220" as="geometry" />
        </mxCell>
        <mxCell id="Vji4ugp31_4n16cxdv0u-27" value="" style="rounded=0;whiteSpace=wrap;html=1;align=left;fontSize=14;fillColor=#d5e8d4;strokeColor=#82b366;opacity=50;movable=1;resizable=1;rotatable=1;deletable=1;editable=1;locked=0;connectable=1;verticalAlign=top;spacingLeft=5;spacingTop=5;" vertex="1" parent="1">
          <mxGeometry x="3460" y="3270" width="620" height="220" as="geometry" />
        </mxCell>
      </root>
    </mxGraphModel>
  </diagram>
</mxfile>
